<svg width="200" height="48" viewBox="0 0 200 48" fill="none" xmlns="http://www.w3.org/2000/svg">
<path d="M58.1239 28.59C57.8305 28.898 57.4932 29.052 57.1119 29.052H55.9679V25.224H57.1119C57.4932 25.224 57.8305 25.3853 58.1239 25.708C58.4172 26.0307 58.5639 26.5 58.5639 27.116C58.5639 27.776 58.4172 28.2673 58.1239 28.59Z" fill="white"/>
<path d="M57.9259 21.99C57.7059 22.298 57.3832 22.452 56.9579 22.452H55.9679V19.24H56.9579C57.3832 19.24 57.7059 19.4013 57.9259 19.724C58.1459 20.0467 58.2559 20.428 58.2559 20.868C58.2559 21.2933 58.1459 21.6673 57.9259 21.99Z" fill="white"/>
<path d="M96.8696 19.504L97.9916 26.17H95.7036L96.8256 19.504H96.8696Z" fill="white"/>
<path d="M132.722 19.504L133.844 26.17H131.556L132.678 19.504H132.722Z" fill="white"/>
<path d="M161.656 19.504L162.778 26.17H160.49L161.612 19.504H161.656Z" fill="white"/>
<path fill-rule="evenodd" clip-rule="evenodd" d="M200 0H0V48H200V0ZM24.364 32.11C24.5253 32.1247 24.6647 32.132 24.782 32.132C25.7793 32.132 26.5787 31.956 27.18 31.604C27.7813 31.2373 28.236 30.5847 28.544 29.646C28.8667 28.6927 29.072 27.4093 29.16 25.796C29.2627 24.168 29.314 22.0853 29.314 19.548H31.206V32H35.298V16.292H25.464C25.464 18.316 25.4493 20.032 25.42 21.44C25.4053 22.848 25.3687 24.014 25.31 24.938C25.2513 25.862 25.178 26.588 25.09 27.116C25.002 27.6293 24.8847 28.0107 24.738 28.26C24.5913 28.5093 24.4153 28.6633 24.21 28.722C24.0193 28.766 23.792 28.788 23.528 28.788H23.264C23.1613 28.7733 23.0733 28.7587 23 28.744V31.978C23.1027 32.0073 23.2347 32.0293 23.396 32.044L23.88 32.088C24.056 32.1027 24.2173 32.11 24.364 32.11ZM48.2899 16.292H38.9839V32H48.4879V28.656H43.0759V25.532H47.9599V22.32H43.0759V19.636H48.2899V16.292ZM58.0579 16.292H51.8759V32H58.0579C58.9085 32 59.6345 31.89 60.2359 31.67C60.8372 31.4353 61.3212 31.1127 61.6879 30.702C62.0692 30.2913 62.3479 29.8073 62.5239 29.25C62.6999 28.678 62.7879 28.0473 62.7879 27.358C62.7879 26.9473 62.7292 26.544 62.6119 26.148C62.5092 25.7373 62.3405 25.3633 62.1059 25.026C61.8712 24.6887 61.5705 24.41 61.2039 24.19C60.8372 23.9553 60.3972 23.816 59.8839 23.772V23.728C60.3239 23.64 60.6979 23.486 61.0059 23.266C61.3139 23.046 61.5632 22.782 61.7539 22.474C61.9592 22.1513 62.1059 21.7993 62.1939 21.418C62.2965 21.022 62.3479 20.6187 62.3479 20.208C62.3479 19.02 61.9959 18.074 61.2919 17.37C60.6025 16.6513 59.5245 16.292 58.0579 16.292ZM70.0747 16.292H66.1367V32H70.6687L73.3527 22.628V32H77.2907V16.292H72.7147L70.0747 25.114V16.292ZM80.0127 19.768H83.0487V32H87.1407V19.768H90.2207V16.292H80.0127V19.768ZM99.4216 16.292H94.2736L90.5116 32H94.8016L95.2196 29.25H98.4756L98.8936 32H103.25L99.4216 16.292ZM109.776 16.292H105.684V32H109.776V25.532H112.284V32H116.376V16.292H112.284V22.056H109.776V16.292ZM135.274 16.292H130.126L126.364 32H130.654L131.072 29.25H134.328L134.746 32H139.102L135.274 16.292ZM141.581 32V27.644H145.277V32H141.581ZM164.208 16.292H159.06L155.298 32H159.588L160.006 29.25H163.262L163.68 32H168.036L164.208 16.292ZM170.515 32V27.644H174.211V32H170.515ZM8 6C8 7.10457 7.10457 8 6 8C4.89543 8 4 7.10457 4 6C4 4.89543 4.89543 4 6 4C7.10457 4 8 4.89543 8 6ZM6 44C7.10457 44 8 43.1046 8 42C8 40.8954 7.10457 40 6 40C4.89543 40 4 40.8954 4 42C4 43.1046 4.89543 44 6 44ZM196 6C196 7.10457 195.105 8 194 8C192.895 8 192 7.10457 192 6C192 4.89543 192.895 4 194 4C195.105 4 196 4.89543 196 6ZM194 44C195.105 44 196 43.1046 196 42C196 40.8954 195.105 40 194 40C192.895 40 192 40.8954 192 42C192 43.1046 192.895 44 194 44Z" fill="white"/>
</svg>
