<svg width="29" height="28" viewBox="0 0 29 28" fill="none" xmlns="http://www.w3.org/2000/svg">
<path fill-rule="evenodd" clip-rule="evenodd" d="M14.5 28C22.232 28 28.5 21.732 28.5 14C28.5 6.26801 22.232 0 14.5 0C6.76801 0 0.5 6.26801 0.5 14C0.5 21.732 6.76801 28 14.5 28ZM10.2641 15.462L7.04544 14.2618C6.71812 14.1527 6.71812 13.6617 7.04544 13.5526L20.302 8.42459C20.5747 8.31549 20.8475 8.58825 20.7929 8.86102L18.3926 20.3173C18.338 20.59 18.0107 20.6991 17.7925 20.5355L14.5738 18.1897C14.3556 18.026 14.0828 18.026 13.9192 18.1897L12.1189 19.6626C11.9007 19.8263 11.5734 19.7717 11.5188 19.4989L10.2641 15.462ZM17.6834 10.9886L11.3552 14.8619C11.0824 14.971 10.9733 15.2983 11.137 15.5711L11.7916 17.9715C11.8462 18.1897 12.1189 18.1351 12.1189 17.9715L12.2826 16.6622C12.2826 16.3894 12.4462 16.1712 12.6099 16.0075L17.7925 11.1523C17.9016 11.0977 17.7925 10.9341 17.6834 10.9886Z" fill="white"/>
</svg>
