<svg width="28" height="28" viewBox="0 0 28 28" fill="none" xmlns="http://www.w3.org/2000/svg">
<path fill-rule="evenodd" clip-rule="evenodd" d="M14 28C21.732 28 28 21.732 28 14C28 6.26801 21.732 0 14 0C6.26801 0 0 6.26801 0 14C0 21.732 6.26801 28 14 28ZM10.2709 7.38214C12.939 6.87262 15.7097 6.87262 18.3777 7.38214C19.5579 7.6369 21.0458 9.06355 21.3537 10.1335C21.8154 12.3245 21.8154 14.5664 21.3537 16.7573C21.0971 17.8782 19.6092 19.3049 18.4291 19.5597C16.8898 19.8144 15.2992 19.9673 13.7599 19.9163C13.7086 19.9163 13.6573 19.9673 13.6573 19.9673C13.4521 20.1711 12.2207 21.4449 12.2207 21.4449L10.6814 23.0244C10.5788 23.1772 10.3736 23.0753 10.3736 22.9225V19.7125C10.3736 19.6616 10.3222 19.6106 10.2709 19.6106C9.14215 19.3558 7.65419 17.9292 7.34633 16.8082C6.88455 14.6173 6.88455 12.3754 7.34633 10.1845C7.60288 9.06355 9.09084 7.6369 10.2709 7.38214ZM17.3516 18.133C17.8647 17.8782 18.1725 17.4706 18.4291 16.9611C18.5317 16.7063 18.4804 16.4516 18.3264 16.3497C18.1982 16.2478 18.0699 16.1586 17.9416 16.0694C17.8133 15.9803 17.6851 15.8911 17.5568 15.7892C17.4283 15.7041 17.3087 15.6191 17.1944 15.5377C17.0348 15.4241 16.8853 15.3178 16.7359 15.2287C16.428 15.0759 16.1202 15.0759 15.8636 15.2797C15.7735 15.3513 15.696 15.448 15.6179 15.5456C15.4736 15.7259 15.327 15.909 15.094 15.9421C14.8374 15.9421 14.6835 15.8911 14.4783 15.7892C13.2982 15.2797 12.5285 14.3626 12.1181 13.1907C12.0668 13.0378 12.0668 12.8849 12.1694 12.7321C12.2051 12.661 12.2659 12.6148 12.3167 12.576C12.3388 12.5591 12.3591 12.5437 12.3746 12.5283C12.4772 12.4264 12.5285 12.3754 12.6311 12.3245C12.9903 12.0697 13.0416 11.6621 12.8364 11.3054C12.5285 10.745 12.1181 10.2355 11.7076 9.72593L11.7076 9.72593C11.5024 9.52212 11.2458 9.42022 10.9893 9.57307C10.6301 9.72593 10.3222 9.92974 10.0657 10.2354C9.80916 10.5412 9.55262 10.9488 9.70654 11.3564C9.82374 11.7055 9.97067 12.0251 10.1247 12.3602C10.173 12.4652 10.222 12.5717 10.2709 12.6811C10.7327 13.5983 11.2971 14.4645 11.9641 15.2287C13.1955 16.5535 14.7348 17.4706 16.3767 18.133L16.3768 18.133C16.5307 18.184 16.6846 18.2349 16.8898 18.2859L17.3516 18.133ZM15.9662 12.8849C16.0175 13.0378 16.0688 13.1397 16.2741 13.1397C16.3767 13.1397 16.428 13.0378 16.428 12.9359V12.7321C16.3254 11.764 15.7097 11.3054 14.8887 11.2545C14.7861 11.2545 14.6322 11.3564 14.6322 11.4583C14.6322 11.6112 14.6835 11.7131 14.8374 11.764H14.8374C14.9914 11.764 15.094 11.764 15.2479 11.815L15.5558 11.9678C15.761 12.1207 15.8636 12.3245 15.9149 12.5283C15.9662 12.6302 15.9662 12.783 15.9662 12.8849ZM14.9401 10.6431C15.2479 10.694 15.5044 10.7959 15.761 10.8978C16.1715 11.1016 16.5306 11.4073 16.8385 11.8659C17.0437 12.2735 17.1463 12.7321 17.1463 13.1907C17.1463 13.2161 17.1592 13.2544 17.172 13.2926C17.1848 13.3308 17.1976 13.369 17.1976 13.3945C17.249 13.6492 17.6081 13.5983 17.6594 13.3945V13.2416V12.8849V12.7321C17.5055 11.7131 16.9924 10.9488 16.0688 10.4902C15.6071 10.2864 15.1453 10.1845 14.6322 10.1335C14.4783 10.0826 14.3757 10.1845 14.3757 10.3374C14.3243 10.4902 14.427 10.5921 14.5809 10.5921C14.6322 10.5921 14.6963 10.6048 14.7605 10.6176C14.8246 10.6303 14.8887 10.6431 14.9401 10.6431ZM18.2751 13.6492C18.2751 13.8021 18.3777 13.9549 18.5317 13.9549C18.6856 13.9549 18.7882 13.8021 18.6856 13.6492C18.6856 13.2416 18.6343 12.885 18.583 12.5284L18.583 12.5283C18.2238 10.3883 16.428 8.96165 14.273 8.9107H14.1704C14.0165 8.9107 13.8626 9.06355 13.9139 9.21641C13.9652 9.42022 14.1704 9.42022 14.3243 9.42022C14.4321 9.44696 14.554 9.45967 14.6825 9.47308C14.7989 9.48521 14.9208 9.49792 15.0427 9.52212C16.6332 9.77688 17.9673 11.1016 18.1725 12.7321C18.2238 13.0378 18.2751 13.3435 18.2751 13.6492Z" fill="white"/>
</svg>
