<svg width="28" height="28" viewBox="0 0 28 28" fill="none" xmlns="http://www.w3.org/2000/svg">
<path fill-rule="evenodd" clip-rule="evenodd" d="M14 28C21.732 28 28 21.732 28 14C28 6.26801 21.732 0 14 0C6.26801 0 0 6.26801 0 14C0 21.732 6.26801 28 14 28ZM20.8353 17.5226C20.8498 17.5372 20.8643 17.5517 20.8643 17.5808V17.5808C20.8643 17.6389 20.8643 17.697 20.9806 17.8132V18.0457C20.9806 18.1619 20.9225 18.22 20.8062 18.2782C20.69 18.3363 20.5156 18.3944 20.3413 18.3944L18.3653 18.4525H18.3653C18.2491 18.4525 18.1329 18.4525 17.9585 18.3944C17.7842 18.3363 17.6679 18.2781 17.5517 18.22L17.3774 18.1038C17.2612 18.0457 17.0868 17.8714 16.8544 17.6389L16.8543 17.6389L16.8542 17.6387C16.6218 17.4063 16.4475 17.232 16.3313 17.0577C16.215 16.8834 16.0407 16.709 15.8664 16.5928C15.7501 16.4765 15.5758 16.4184 15.4595 16.4766H15.4014L15.2852 16.5928C15.2271 16.6509 15.169 16.709 15.1109 16.8253C15.0782 16.8905 15.0639 16.9558 15.0473 17.0314C15.0344 17.0904 15.0201 17.1556 14.9946 17.2321C14.9365 17.4064 14.9365 17.5808 14.9365 17.8132V18.0457C14.9365 18.0747 14.922 18.0893 14.9074 18.1038C14.8929 18.1183 14.8784 18.1329 14.8784 18.1619L14.8203 18.22C14.704 18.3363 14.5878 18.3944 14.4135 18.3944H13.5417C13.193 18.4525 12.8443 18.3944 12.4375 18.2782C12.0888 18.1619 11.7401 18.0457 11.4495 17.8713L11.4495 17.8713C11.1589 17.697 10.8684 17.5226 10.6359 17.3483C10.4035 17.174 10.2291 16.9996 10.1129 16.8834L10.1129 16.8834L9.93851 16.709L9.70605 16.4766C9.64793 16.3603 9.47359 16.1279 9.18301 15.7792C9.00165 15.5615 8.84293 15.3213 8.67859 15.0725C8.57962 14.9227 8.47861 14.7697 8.36939 14.6168C8.299 14.4937 8.21795 14.3545 8.12947 14.2026C7.92575 13.8527 7.68264 13.4353 7.43953 12.9896C7.09083 12.2922 6.74214 11.5948 6.45156 10.8974C6.39344 10.7812 6.39344 10.7231 6.39344 10.6649V10.5487L6.45156 10.4906C6.50967 10.4325 6.6259 10.3744 6.85837 10.3744H8.95055C8.97961 10.3744 9.00866 10.3889 9.03772 10.4034C9.06678 10.418 9.09583 10.4325 9.12489 10.4325C9.18301 10.4325 9.24113 10.4906 9.24113 10.4906H9.29925C9.35736 10.5487 9.41547 10.6068 9.47359 10.7231C9.53171 10.8684 9.58982 10.9991 9.64794 11.1299C9.70606 11.2606 9.76417 11.3914 9.82229 11.5367C9.93852 11.8273 10.0548 12.0597 10.1129 12.176L10.2291 12.4084C10.3085 12.6467 10.4151 12.8307 10.5117 12.9975C10.5565 13.0748 10.5991 13.1484 10.6359 13.222C10.7521 13.4545 10.8684 13.6289 10.9846 13.7451C11.0427 13.8613 11.159 13.9776 11.2752 14.0357C11.3333 14.0938 11.4495 14.1519 11.5077 14.1519C11.5757 14.1519 11.6239 14.132 11.6638 14.1154C11.692 14.1038 11.716 14.0938 11.7401 14.0938C11.7982 14.0938 11.7982 14.0357 11.7982 14.0357C11.8393 14.0357 11.8514 14.0066 11.8754 13.9485C11.8854 13.9244 11.8975 13.8954 11.9145 13.8613C11.9726 13.8032 12.0307 13.687 12.0307 13.5126C12.0307 13.4365 12.0418 13.3604 12.0542 13.2747C12.0704 13.1639 12.0888 13.0371 12.0888 12.8734V11.9435C12.0888 11.711 12.0888 11.5367 12.0307 11.3623C12.0085 11.2957 11.9948 11.2376 11.9831 11.188C11.9641 11.1077 11.9504 11.0496 11.9145 11.0136L11.8564 10.8974C11.7401 10.7231 11.5077 10.6068 11.2171 10.5487C11.159 10.5487 11.159 10.4906 11.2752 10.3744C11.3333 10.2581 11.4495 10.2 11.5658 10.1419L11.5658 10.1419C11.7982 10.0257 12.4375 9.96756 13.3674 9.96756C13.7742 9.96756 14.1229 10.0257 14.4135 10.0838C14.4425 10.1128 14.4861 10.1274 14.5297 10.1419C14.5733 10.1564 14.6169 10.171 14.6459 10.2L14.8203 10.3744C14.8203 10.4034 14.8348 10.447 14.8493 10.4906C14.8639 10.5342 14.8784 10.5778 14.8784 10.6068V10.9555V11.3623V11.8854V12.5247V12.8734V13.222V13.5126C14.9039 13.5636 14.9182 13.6146 14.9311 13.6606C14.9477 13.7196 14.962 13.7706 14.9946 13.8032L15.169 13.9776C15.169 14.0357 15.2271 14.0357 15.2852 14.0357C15.2852 14.0938 15.4014 14.0357 15.4595 13.9776C15.4971 13.9025 15.5588 13.8517 15.6292 13.7938C15.6678 13.762 15.7089 13.7282 15.7501 13.687C15.8352 13.6019 15.9203 13.4856 16.0282 13.3382C16.0677 13.2843 16.1102 13.2262 16.1569 13.1639C16.3313 12.9315 16.5056 12.641 16.6799 12.3505L16.68 12.3503C16.7386 12.2331 16.7971 12.1183 16.8553 12.0044C17.0854 11.5535 17.308 11.1172 17.4936 10.6068C17.4936 10.5487 17.4936 10.5487 17.5517 10.4906L17.5517 10.4906L17.6098 10.4325H17.668H17.7261H17.8423H18.0167H20.2251C20.3994 10.3744 20.5737 10.3744 20.69 10.4325C20.8062 10.4325 20.8643 10.4906 20.9225 10.5487L20.9806 10.6068C21.0968 10.9555 20.69 11.711 19.8182 12.8734C19.6986 12.993 19.6063 13.1126 19.4851 13.2698C19.4297 13.3417 19.3682 13.4214 19.2952 13.5126C19.2653 13.5511 19.2362 13.5884 19.2082 13.6244C18.8551 14.0778 18.6517 14.3391 18.5978 14.5006C18.5397 14.7331 18.5397 14.9074 18.714 15.1399C18.7456 15.1715 18.7815 15.2116 18.824 15.2592C18.9379 15.3868 19.0994 15.5676 19.3533 15.7792C20.0507 16.4184 20.5738 16.9996 20.8062 17.4645C20.8062 17.4936 20.8207 17.5081 20.8353 17.5226Z" fill="white"/>
</svg>
