<svg width="24" height="24" viewBox="0 0 24 24" fill="none" xmlns="http://www.w3.org/2000/svg">
<path fill-rule="evenodd" clip-rule="evenodd" d="M12.0502 23.7938H12.0453C10.0453 23.7931 8.08018 23.2937 6.33478 22.3462L0 24L1.69529 17.8374C0.649554 16.0338 0.099291 13.9879 0.100188 11.8919C0.102809 5.33474 5.4635 0 12.0501 0C15.2468 0.00137307 18.2472 1.23989 20.5033 3.48784C22.7594 5.73568 24.0013 8.72361 24 11.9013C23.9974 18.4569 18.6388 23.7911 12.0502 23.7938ZM6.62842 20.1932L6.9911 20.4074C8.51605 21.308 10.2641 21.7846 12.0464 21.7852H12.0504C17.5247 21.7852 21.9803 17.3509 21.9825 11.9005C21.9835 9.25929 20.9514 6.77586 19.0762 4.90744C17.201 3.03903 14.7072 2.00956 12.0543 2.00865C6.57571 2.00865 2.12009 6.44254 2.11792 11.8925C2.11715 13.7603 2.64226 15.5792 3.63649 17.153L3.87264 17.527L2.86927 21.1746L6.62842 20.1932ZM17.6614 14.4616C17.8696 14.5617 18.0102 14.6294 18.0703 14.7291C18.1449 14.853 18.1449 15.448 17.8962 16.1422C17.6473 16.8363 16.4545 17.4698 15.8807 17.5551C15.3663 17.6317 14.7154 17.6636 14.0001 17.4374C13.5664 17.3004 13.0103 17.1176 12.2979 16.8114C9.49875 15.6085 7.60708 12.9085 7.24956 12.3982C7.22452 12.3625 7.207 12.3375 7.19723 12.3245L7.19482 12.3213C7.03681 12.1115 5.97803 10.7055 5.97803 9.25049C5.97803 7.88171 6.65363 7.16426 6.96461 6.83402C6.98591 6.8114 7.00551 6.79059 7.02305 6.77151C7.29674 6.47401 7.62024 6.39964 7.81928 6.39964C8.01831 6.39964 8.21758 6.40147 8.39155 6.41017C8.41301 6.41124 8.43534 6.41111 8.45843 6.41097C8.63242 6.40996 8.84935 6.40869 9.06335 6.92026C9.14567 7.11713 9.26613 7.40899 9.39318 7.71681C9.65011 8.33933 9.934 9.02715 9.98394 9.12668C10.0586 9.27543 10.1084 9.4489 10.0088 9.64731C9.99389 9.67706 9.98007 9.70514 9.96687 9.73196C9.89212 9.88384 9.83713 9.99556 9.71026 10.143C9.66037 10.201 9.60881 10.2635 9.55725 10.3259C9.45452 10.4504 9.35181 10.5749 9.26237 10.6636C9.11289 10.8118 8.95729 10.9726 9.13146 11.2701C9.30563 11.5676 9.90487 12.5406 10.7925 13.3286C11.7467 14.1756 12.576 14.5336 12.9963 14.715C13.0784 14.7505 13.1449 14.7792 13.1937 14.8035C13.4922 14.9523 13.6664 14.9274 13.8405 14.7291C14.0147 14.5308 14.5869 13.8614 14.786 13.564C14.985 13.2666 15.1841 13.3161 15.4578 13.4152C15.7315 13.5145 17.1995 14.2333 17.4981 14.382C17.5564 14.4111 17.6109 14.4373 17.6614 14.4616Z" fill="white"/>
</svg>
