<svg width="28" height="28" viewBox="0 0 28 28" fill="none" xmlns="http://www.w3.org/2000/svg">
<path fill-rule="evenodd" clip-rule="evenodd" d="M14 28C21.732 28 28 21.732 28 14C28 6.26801 21.732 0 14 0C6.26801 0 0 6.26801 0 14C0 21.732 6.26801 28 14 28ZM14.3756 6.29998C16.3219 6.29998 18.1658 7.06561 19.5488 8.44373C20.9317 9.82185 21.6488 11.6594 21.7 13.5479C21.7 17.5802 18.4219 20.8469 14.3756 20.8469C13.1463 20.8469 11.9683 20.5406 10.8927 19.9791L7 21L8.02439 17.2229C7.40976 16.151 7.05122 14.875 7.05122 13.5989C7.05122 9.56665 10.3293 6.29998 14.3756 6.29998ZM16.6805 17.0698C17.039 17.0187 17.7561 16.6104 17.9098 16.2021C18.0634 15.7937 18.0634 15.4364 18.0122 15.2833C17.961 15.2323 17.8585 15.1812 17.6537 15.0791C17.5 14.9771 16.578 14.5177 16.4244 14.4666C16.2707 14.4156 16.1171 14.3646 16.0146 14.5687C15.9122 14.7729 15.5537 15.1812 15.4512 15.2833C15.3488 15.3854 15.2463 15.4364 15.0415 15.3344C15.0104 15.3189 14.9711 15.3011 14.9243 15.2798C14.6622 15.161 14.1645 14.9353 13.5561 14.4156C12.9927 13.9052 12.6341 13.3437 12.5317 13.1396C12.4293 12.9864 12.5317 12.8844 12.6341 12.7823C12.6554 12.7611 12.6854 12.7225 12.7205 12.6772C12.7702 12.6131 12.8302 12.5358 12.8902 12.476C12.9927 12.3739 13.0439 12.2719 13.0951 12.1698C13.1463 12.0677 13.1463 11.9656 13.0951 11.8635C13.0613 11.8299 12.8939 11.4189 12.7398 11.0404C12.6601 10.8449 12.584 10.6581 12.5317 10.5364C12.3944 10.2171 12.257 10.224 12.1562 10.229C12.1443 10.2296 12.1328 10.2302 12.1219 10.2302H11.7634C11.6098 10.2302 11.4049 10.2302 11.2512 10.4344C11.2309 10.4614 11.2052 10.492 11.1759 10.5268C10.9837 10.7555 10.6366 11.1684 10.6366 11.9656C10.6366 12.8844 11.3024 13.7521 11.4049 13.8541C11.4077 13.8584 11.4114 13.8639 11.4159 13.8707C11.5732 14.1084 12.7365 15.866 14.5293 16.6104C14.815 16.7527 15.0758 16.8455 15.2943 16.9232C15.3892 16.9569 15.4761 16.9878 15.5537 17.0187C15.9634 17.1208 16.3732 17.1208 16.6805 17.0698Z" fill="white"/>
</svg>
