<?xml version="1.0" encoding="UTF-8" standalone="no"?>
<svg
   xmlns:dc="http://purl.org/dc/elements/1.1/"
   xmlns:cc="http://creativecommons.org/ns#"
   xmlns:rdf="http://www.w3.org/1999/02/22-rdf-syntax-ns#"
   xmlns:svg="http://www.w3.org/2000/svg"
   xmlns="http://www.w3.org/2000/svg"
   viewBox="0 0 1122.52 793.70667"
   height="793.70667"
   width="1122.52"
   xml:space="preserve"
   id="svg2"
   version="1.1"><metadata
     id="metadata8"><rdf:RDF><cc:Work
         rdf:about=""><dc:format>image/svg+xml</dc:format><dc:type
           rdf:resource="http://purl.org/dc/dcmitype/StillImage" /></cc:Work></rdf:RDF></metadata><defs
     id="defs6"><clipPath
       id="clipPath50"
       clipPathUnits="userSpaceOnUse"><path
         id="path48"
         d="M 0,595.28 H 841.89 V 0 H 0 Z" /></clipPath></defs><g
     transform="matrix(1.3333333,0,0,-1.3333333,0,793.70667)"
     id="g10"><g
       transform="translate(300.5679,301.459)"
       id="g12"><path
         id="path14"
         style="fill:#ffd200;fill-opacity:1;fill-rule:nonzero;stroke:none"
         d="M 0,0 V 41.85 H 41.85 Z" /></g><g
       transform="translate(300.5679,343.3086)"
       id="g16"><path
         id="path18"
         style="fill:#f28c18;fill-opacity:1;fill-rule:nonzero;stroke:none"
         d="M 0,0 V -41.85 H 41.85 Z" /></g><g
       transform="translate(419.6982,343.3086)"
       id="g20"><path
         id="path22"
         style="fill:#00a0e4;fill-opacity:1;fill-rule:nonzero;stroke:none"
         d="M 0,0 V -41.85 H -41.85 Z" /></g><path
       id="path24"
       style="fill:#b1b1b1;fill-opacity:1;fill-rule:nonzero;stroke:none"
       d="m 440.373,301.459 h -13.949 v 41.85 h 13.949 z" /><path
       id="path26"
       style="fill:#b9a9d2;fill-opacity:1;fill-rule:nonzero;stroke:none"
       d="m 468.273,301.459 h -41.85 v 13.95 h 41.85 z" /><path
       id="path28"
       style="fill:#b9a9d2;fill-opacity:1;fill-rule:nonzero;stroke:none"
       d="m 468.273,329.359 h -41.85 v 13.95 h 41.85 z" /><g
       transform="translate(426.4248,343.3086)"
       id="g30"><path
         id="path32"
         style="fill:#7462a7;fill-opacity:1;fill-rule:nonzero;stroke:none"
         d="M 0,0 25.259,-20.925 0,-41.85 Z" /></g><path
       id="path34"
       style="fill:#b1b1b1;fill-opacity:1;fill-rule:nonzero;stroke:none"
       d="m 586.102,301.459 h -13.951 v 41.85 h 13.951 z" /><path
       id="path36"
       style="fill:#91c02e;fill-opacity:1;fill-rule:nonzero;stroke:none"
       d="m 614,301.459 h -41.85 v 13.95 H 614 Z" /><path
       id="path38"
       style="fill:#91c02e;fill-opacity:1;fill-rule:nonzero;stroke:none"
       d="m 614,329.359 h -41.85 v 13.95 H 614 Z" /><g
       transform="translate(572.1504,343.3086)"
       id="g40"><path
         id="path42"
         style="fill:#b8ce1d;fill-opacity:1;fill-rule:nonzero;stroke:none"
         d="M 0,0 25.26,-20.925 0,-41.85 Z" /></g><g
       id="g44"><g
         clip-path="url(#clipPath50)"
         id="g46"><g
           transform="translate(293.8169,322.3838)"
           id="g52"><path
             id="path54"
             style="fill:#eb5d47;fill-opacity:1;fill-rule:nonzero;stroke:none"
             d="m 0,0 c 0,-11.558 -9.369,-20.925 -20.925,-20.925 -11.557,0 -20.926,9.367 -20.926,20.925 0,11.554 9.369,20.925 20.926,20.925 C -9.369,20.925 0,11.554 0,0" /></g><g
           transform="translate(381.5996,322.3838)"
           id="g56"><path
             id="path58"
             style="fill:#66b338;fill-opacity:1;fill-rule:nonzero;stroke:none"
             d="m 0,0 c 0,-11.558 -9.368,-20.925 -20.925,-20.925 -11.555,0 -20.925,9.367 -20.925,20.925 0,11.554 9.37,20.925 20.925,20.925 C -9.368,20.925 0,11.554 0,0" /></g><path
           id="path60"
           style="fill:#00a0e4;fill-opacity:1;fill-rule:nonzero;stroke:none"
           d="m 217.317,301.46 h -13.952 v 41.848 h 13.952 z" /><path
           id="path62"
           style="fill:#00a0e4;fill-opacity:1;fill-rule:nonzero;stroke:none"
           d="m 245.213,301.46 h -13.95 v 41.848 h 13.95 z" /><path
           id="path64"
           style="fill:#3763ab;fill-opacity:1;fill-rule:nonzero;stroke:none"
           d="m 245.213,329.359 h -41.848 v 13.95 h 41.848 z" /><path
           id="path66"
           style="fill:#fab700;fill-opacity:1;fill-rule:nonzero;stroke:none"
           d="m 488.952,301.459 h -13.953 v 41.85 h 13.953 z" /><path
           id="path68"
           style="fill:#fab700;fill-opacity:1;fill-rule:nonzero;stroke:none"
           d="m 516.85,301.459 h -13.951 v 41.85 h 13.951 z" /><path
           id="path70"
           style="fill:#f28c18;fill-opacity:1;fill-rule:nonzero;stroke:none"
           d="m 516.85,315.409 h -41.851 v 13.95 h 41.851 z" /><path
           id="path72"
           style="fill:#fab700;fill-opacity:1;fill-rule:nonzero;stroke:none"
           d="m 537.525,301.459 h -13.95 v 41.85 h 13.95 z" /><g
           transform="translate(565.4248,301.459)"
           id="g74"><path
             id="path76"
             style="fill:#eb5d47;fill-opacity:1;fill-rule:nonzero;stroke:none"
             d="M 0,0 H -41.85 L 0,41.85 Z" /></g><g
           transform="translate(469.042,278.8672)"
           id="g78"><path
             id="path80"
             style="fill:#5c5c5b;fill-opacity:1;fill-rule:nonzero;stroke:none"
             d="M 0,0 V 7.562 H 1.188 V 1.091 H 4.009 V 7.562 H 5.196 V 1.091 H 8.017 V 7.562 H 9.205 L 9.205,0 Z" /></g><g
           transform="translate(480.1309,278.8672)"
           id="g82"><path
             id="path84"
             style="fill:#5c5c5b;fill-opacity:1;fill-rule:nonzero;stroke:none"
             d="M 0,0 V 7.562 H 1.188 V 4.473 L 4.289,7.562 H 5.812 L 2.313,4.105 6.374,0 H 4.754 L 1.188,3.63 V 0 Z" /></g><g
           transform="translate(490.4072,279.8398)"
           id="g86"><path
             id="path88"
             style="fill:#5c5c5b;fill-opacity:1;fill-rule:nonzero;stroke:none"
             d="m 0,0 c 0.745,0 1.372,0.27 1.88,0.799 0.508,0.54 0.767,1.21 0.767,2.01 0,0.799 -0.259,1.468 -0.767,1.998 -0.508,0.541 -1.135,0.81 -1.88,0.81 -0.745,0 -1.372,-0.269 -1.88,-0.81 -0.508,-0.53 -0.756,-1.199 -0.756,-1.998 0,-0.8 0.248,-1.47 0.756,-2.01 C -1.372,0.27 -0.745,0 0,0 m 0,-1.113 c -1.112,0 -2.031,0.378 -2.766,1.124 -0.723,0.756 -1.09,1.684 -1.09,2.798 0,1.112 0.367,2.042 1.09,2.787 C -2.031,6.352 -1.112,6.73 0,6.73 1.113,6.73 2.031,6.352 2.766,5.596 3.5,4.851 3.868,3.921 3.868,2.809 3.868,1.695 3.5,0.767 2.766,0.011 2.031,-0.735 1.113,-1.113 0,-1.113" /></g><g
           transform="translate(494.7979,279.9687)"
           id="g90"><path
             id="path92"
             style="fill:#5c5c5b;fill-opacity:1;fill-rule:nonzero;stroke:none"
             d="m 0,0 c 0.107,-0.032 0.237,-0.043 0.399,-0.043 0.53,0 0.875,0.303 1.059,0.994 0.205,0.692 0.271,1.534 0.303,2.917 L 1.793,6.461 H 6.827 V -1.102 H 5.639 V 5.369 H 2.938 L 2.905,3.749 C 2.873,2.053 2.732,0.983 2.376,0.108 2.02,-0.756 1.404,-1.134 0.464,-1.134 0.259,-1.134 0.107,-1.112 0,-1.08 Z" /></g><g
           transform="translate(505.29,281.7949)"
           id="g94"><path
             id="path96"
             style="fill:#5c5c5b;fill-opacity:1;fill-rule:nonzero;stroke:none"
             d="M 0,0 H 2.766 L 1.383,3.176 Z M -2.485,-2.928 0.821,4.678 H 1.966 L 5.271,-2.928 H 3.997 l -0.821,1.88 h -3.587 l -0.81,-1.88 z" /></g><g
           transform="translate(513.4287,286.4297)"
           id="g98"><path
             id="path100"
             style="fill:#5c5c5b;fill-opacity:1;fill-rule:nonzero;stroke:none"
             d="M 0,0 H 6.19 V -1.092 H 3.684 v -6.47 H 2.495 v 6.47 l -2.495,0 z" /></g><g
           transform="translate(522.1064,279.958)"
           id="g102"><path
             id="path104"
             style="fill:#5c5c5b;fill-opacity:1;fill-rule:nonzero;stroke:none"
             d="m 0,0 h 2.313 c 0.917,0 1.479,0.443 1.479,1.21 0,0.746 -0.54,1.167 -1.479,1.167 H 0 Z m 0,3.425 h 2.042 c 0.789,0 1.253,0.346 1.253,0.983 0,0.637 -0.464,0.972 -1.253,0.972 L 0,5.38 Z M -1.188,-1.091 V 6.472 H 2.247 C 3.598,6.472 4.473,5.78 4.473,4.613 4.473,3.836 4.041,3.273 3.468,3.058 4.387,2.885 5.078,2.15 5.078,1.037 5.078,0.4 4.851,-0.118 4.387,-0.508 3.933,-0.896 3.317,-1.091 2.528,-1.091 Z" /></g><g
           transform="translate(532.1348,279.8398)"
           id="g106"><path
             id="path108"
             style="fill:#5c5c5b;fill-opacity:1;fill-rule:nonzero;stroke:none"
             d="m 0,0 c 0.746,0 1.372,0.27 1.88,0.799 0.508,0.54 0.766,1.21 0.766,2.01 0,0.799 -0.258,1.468 -0.766,1.998 -0.508,0.541 -1.134,0.81 -1.88,0.81 -0.745,0 -1.372,-0.269 -1.88,-0.81 -0.508,-0.53 -0.756,-1.199 -0.756,-1.998 0,-0.8 0.248,-1.47 0.756,-2.01 C -1.372,0.27 -0.745,0 0,0 m 0,-1.113 c -1.112,0 -2.031,0.378 -2.766,1.124 -0.723,0.756 -1.09,1.684 -1.09,2.798 0,1.112 0.367,2.042 1.09,2.787 C -2.031,6.352 -1.112,6.73 0,6.73 1.113,6.73 2.031,6.352 2.766,5.596 3.5,4.851 3.868,3.921 3.868,2.809 3.868,1.695 3.5,0.767 2.766,0.011 2.031,-0.735 1.113,-1.113 0,-1.113" /></g><g
           transform="translate(537.6152,278.8672)"
           id="g110"><path
             id="path112"
             style="fill:#5c5c5b;fill-opacity:1;fill-rule:nonzero;stroke:none"
             d="M 0,0 V 7.562 H 5.381 V 6.471 H 1.188 V 4.581 H 4.603 V 3.489 H 1.188 V 1.091 H 5.521 L 5.521,0 Z" /></g><g
           transform="translate(544.543,278.8672)"
           id="g114"><path
             id="path116"
             style="fill:#5c5c5b;fill-opacity:1;fill-rule:nonzero;stroke:none"
             d="M 0,0 V 7.562 H 5.294 V 6.471 H 1.188 L 1.188,0 Z" /></g><g
           transform="translate(554.1826,279.8398)"
           id="g118"><path
             id="path120"
             style="fill:#5c5c5b;fill-opacity:1;fill-rule:nonzero;stroke:none"
             d="m 0,0 c 0.745,0 1.372,0.27 1.88,0.799 0.508,0.54 0.767,1.21 0.767,2.01 0,0.799 -0.259,1.468 -0.767,1.998 -0.508,0.541 -1.135,0.81 -1.88,0.81 -0.745,0 -1.372,-0.269 -1.88,-0.81 -0.508,-0.53 -0.756,-1.199 -0.756,-1.998 0,-0.8 0.248,-1.47 0.756,-2.01 C -1.372,0.27 -0.745,0 0,0 m 0,-1.113 c -1.112,0 -2.031,0.378 -2.766,1.124 -0.723,0.756 -1.09,1.684 -1.09,2.798 0,1.112 0.367,2.042 1.09,2.787 C -2.031,6.352 -1.112,6.73 0,6.73 1.113,6.73 2.031,6.352 2.766,5.596 3.5,4.851 3.868,3.921 3.868,2.809 3.868,1.695 3.5,0.767 2.766,0.011 2.031,-0.735 1.113,-1.113 0,-1.113" /></g><g
           transform="translate(563.6611,279.958)"
           id="g122"><path
             id="path124"
             style="fill:#5c5c5b;fill-opacity:1;fill-rule:nonzero;stroke:none"
             d="m 0,0 h 2.313 c 0.917,0 1.479,0.443 1.479,1.21 0,0.746 -0.54,1.167 -1.479,1.167 H 0 Z m 0,3.425 h 2.042 c 0.789,0 1.253,0.346 1.253,0.983 0,0.637 -0.464,0.972 -1.253,0.972 L 0,5.38 Z M -1.188,-1.091 V 6.472 H 2.247 C 3.598,6.472 4.473,5.78 4.473,4.613 4.473,3.836 4.041,3.273 3.468,3.058 4.387,2.885 5.078,2.15 5.078,1.037 5.078,0.4 4.851,-0.118 4.387,-0.508 3.933,-0.896 3.317,-1.091 2.528,-1.091 Z" /></g><g
           transform="translate(571.4531,283.0801)"
           id="g126"><path
             id="path128"
             style="fill:#5c5c5b;fill-opacity:1;fill-rule:nonzero;stroke:none"
             d="m 0,0 h 1.967 c 0.896,0 1.426,0.411 1.426,1.135 0,0.723 -0.53,1.123 -1.426,1.123 H 0 Z M -1.188,-4.213 V 3.35 H 2.063 C 2.853,3.35 3.468,3.145 3.911,2.733 4.365,2.334 4.592,1.805 4.592,1.156 4.592,0.497 4.365,-0.043 3.911,-0.464 3.468,-0.886 2.853,-1.091 2.063,-1.091 H 0 v -3.122 z" /></g><g
           transform="translate(577.4199,278.8672)"
           id="g130"><path
             id="path132"
             style="fill:#5c5c5b;fill-opacity:1;fill-rule:nonzero;stroke:none"
             d="M 0,0 V 7.562 H 5.381 V 6.471 H 1.188 V 4.581 H 4.603 V 3.489 H 1.188 V 1.091 H 5.521 L 5.521,0 Z" /></g><g
           transform="translate(584.3467,278.8672)"
           id="g134"><path
             id="path136"
             style="fill:#5c5c5b;fill-opacity:1;fill-rule:nonzero;stroke:none"
             d="M 0,0 V 7.562 H 1.21 L 3.663,4.159 6.094,7.562 H 7.282 V 0 H 6.094 V 5.747 L 3.987,2.896 H 3.296 L 1.188,5.747 V 0 Z" /></g><g
           transform="translate(593.5117,278.8672)"
           id="g138"><path
             id="path140"
             style="fill:#5c5c5b;fill-opacity:1;fill-rule:nonzero;stroke:none"
             d="M 0,0 V 7.562 H 5.381 V 6.471 H 1.188 V 4.581 H 4.603 V 3.489 H 1.188 V 1.091 H 5.521 L 5.521,0 Z" /></g><g
           transform="translate(600.4395,278.8672)"
           id="g142"><path
             id="path144"
             style="fill:#5c5c5b;fill-opacity:1;fill-rule:nonzero;stroke:none"
             d="M 0,0 V 7.562 H 1.188 V 4.581 H 5.132 V 7.562 H 6.32 V 0 H 5.132 V 3.489 H 1.188 L 1.188,0 Z" /></g><g
           transform="translate(608.6426,278.8672)"
           id="g146"><path
             id="path148"
             style="fill:#5c5c5b;fill-opacity:1;fill-rule:nonzero;stroke:none"
             d="M 0,0 V 7.562 H 1.188 V 2.01 l 4.16,5.552 H 6.385 V 0 H 5.197 V 5.574 L 1.016,0 Z" /></g></g></g></g></svg>