<svg xmlns="http://www.w3.org/2000/svg" xmlns:xlink="http://www.w3.org/1999/xlink" version="1.1" x="0px" y="0px" viewBox="0 0 100 125" enable-background="new 0 0 100 100" xml:space="preserve"><g><g><path d="M20.52,29.733c3.729,0,6.764-4.332,6.764-8.064c0-3.737-3.031-6.769-6.764-6.769c-3.736,0-6.769,3.028-6.769,6.769    C13.748,25.401,16.784,29.733,20.52,29.733z"/><path d="M33.761,34.448c-0.053-0.195-0.089-0.392-0.185-0.57c-0.068-0.136-0.174-0.242-0.26-0.359    c-0.121-0.16-0.228-0.318-0.384-0.449c-0.12-0.098-0.263-0.162-0.398-0.242c-0.139-0.079-0.251-0.19-0.405-0.245    c-0.245-0.087-5.628-2.019-10.576-2.271l-0.684,1.359h-0.015l1.8,14.029l-2.139,3.739l-2.14-3.739l1.8-14.029h-0.018l-0.68-1.359    c-4.948,0.253-10.331,2.185-10.575,2.271c-0.154,0.059-0.272,0.169-0.408,0.25c-0.133,0.077-0.274,0.139-0.39,0.236    c-0.162,0.134-0.271,0.294-0.396,0.455c-0.087,0.115-0.186,0.218-0.25,0.345c-0.097,0.185-0.136,0.381-0.192,0.582    c-0.032,0.115-0.097,0.219-0.112,0.346l-2.137,19.26c-0.165,1.471,0.894,2.791,2.364,2.954c0.098,0.012,0.198,0.019,0.299,0.019    c1.346,0,2.503-1.01,2.654-2.381l1.95-17.547c0.228-0.064,0.476-0.139,0.742-0.215v18.261l-2.128,26.477    c-0.142,1.769,1.175,3.313,2.942,3.456c0.086,0.009,0.174,0.012,0.26,0.012c1.655,0,3.059-1.273,3.194-2.954l1.927-23.924    c0.396,0.175,0.835,0.278,1.296,0.278c0.462,0,0.897-0.104,1.297-0.278l1.923,23.924c0.137,1.681,1.541,2.954,3.196,2.954    c0.086,0,0.174-0.003,0.26-0.012c1.766-0.143,3.084-1.688,2.942-3.456l-2.13-26.477v-18.26c0.266,0.076,0.514,0.15,0.742,0.215    l1.948,17.547c0.156,1.365,1.313,2.381,2.655,2.381c0.098,0,0.198-0.007,0.299-0.019c1.47-0.163,2.527-1.483,2.367-2.954    l-2.14-19.26C33.861,34.673,33.792,34.566,33.761,34.448z"/></g><g><g><path d="M85.682,20.69c2.237-1.5,3.781-4.475,3.781-7.147c0-3.776-3.063-6.835-6.836-6.835s-6.836,3.06-6.836,6.835     c0,2.67,1.544,5.646,3.782,7.147c-5.351,1.358-9.322,6.008-9.322,9.457c0,4.067,24.749,4.067,24.749,0     C95,26.701,91.033,22.052,85.682,20.69z M82.627,33.193l-3.468-3.46l2.918-7.059h-0.033l-1.13-1.296     c0.55,0.195,1.118,0.314,1.713,0.314c0.596,0,1.163-0.117,1.713-0.314l-1.136,1.296H83.18l2.916,7.059L82.627,33.193z"/><path d="M85.682,50.737c2.237-1.5,3.781-4.475,3.781-7.147c0-3.776-3.063-6.836-6.836-6.836s-6.836,3.06-6.836,6.836     c0,2.67,1.544,5.646,3.782,7.147c-5.351,1.357-9.322,6.008-9.322,9.456c0,4.066,24.749,4.066,24.749,0     C95,56.751,91.033,52.1,85.682,50.737z M82.627,63.242l-3.468-3.463l2.918-7.059h-0.033l-1.13-1.296     c0.55,0.196,1.118,0.317,1.713,0.317c0.596,0,1.163-0.121,1.713-0.317l-1.136,1.296H83.18l2.916,7.059L82.627,63.242z"/><path d="M85.682,80.786c2.237-1.501,3.781-4.477,3.781-7.149c0-3.776-3.063-6.833-6.836-6.833s-6.836,3.057-6.836,6.833     c0,2.671,1.544,5.646,3.782,7.149c-5.351,1.355-9.322,6.009-9.322,9.455c0,4.068,24.749,4.068,24.749,0     C95,86.795,91.033,82.147,85.682,80.786z M82.627,93.289l-3.468-3.462l2.918-7.059h-0.033l-1.13-1.297     c0.55,0.193,1.118,0.313,1.713,0.313c0.596,0,1.163-0.114,1.713-0.313l-1.136,1.297H83.18l2.916,7.059L82.627,93.289z"/></g><polygon points="68.44,21.382 68.44,18.511 47.397,18.511 47.397,48.574 38.157,48.574 38.157,51.435 47.397,51.435     47.397,81.496 68.44,81.496 68.44,78.627 50.26,78.627 50.26,51.438 68.44,51.438 68.44,48.574 50.26,48.574 50.26,21.382   "/></g></g><text x="0" y="115" fill="#000000" font-size="5px" font-weight="bold" font-family="'Helvetica Neue', Helvetica, Arial-Unicode, Arial, Sans-serif">Created by Fiona OM</text><text x="0" y="120" fill="#000000" font-size="5px" font-weight="bold" font-family="'Helvetica Neue', Helvetica, Arial-Unicode, Arial, Sans-serif">from the Noun Project</text></svg>