<svg xmlns="http://www.w3.org/2000/svg" xmlns:xlink="http://www.w3.org/1999/xlink" version="1.1" x="0px" y="0px" viewBox="0 0 100 125" enable-background="new 0 0 100 100" xml:space="preserve"><path d="M95.4,45.9H84c-1.6,0-2.8-1.3-2.8-2.8c0-1.6,1.3-2.8,2.8-2.8h11.3c1.6,0,2.8,1.3,2.8,2.8C98.2,44.7,96.9,45.9,95.4,45.9z   M83.5,36.1l10.8-4.3c1.4-0.5,2.1-2,1.6-3.4c-0.5-1.5-2.2-2.3-3.7-1.7L81.4,31c-1.4,0.5-2.1,2-1.6,3.4C80.3,35.9,82,36.7,83.5,36.1z   M81.4,55.3l10.8,4.3c1.5,0.6,3.2-0.2,3.7-1.7c0.4-1.4-0.3-2.9-1.6-3.4l-10.8-4.3c-1.5-0.6-3.2,0.2-3.7,1.7  C79.4,53.2,80.1,54.7,81.4,55.3z M29.4,59.5h-3.5L28.6,81c0.2,1.8-0.9,3.5-2.7,3.9c-1.8,0.4-3.7-0.6-4.2-2.4l-6.9-23h-1.7  c-3.8,0-6.9-3.1-6.9-6.9V50H4.1c-1.3,0-2.3-1-2.3-2.3V39c0-1.3,1-2.3,2.3-2.3h2.1v-3.1c0-3.8,3.1-6.9,6.9-6.9h16.3  c1.5,0,2.6,1.1,2.8,2.5c6.8-1,18.3-3.5,28.1-9.8c1.6-2.8,3.4-4.5,5.5-4.5c5.6,0,10.1,12.6,10.1,28.2c0,15.6-4.5,28.2-10.1,28.2  c-2.2,0-4.2-1.9-5.8-5.2c-9.7-6.1-21-8.6-27.7-9.6v0.1v0C32.2,58.2,31,59.5,29.4,59.5z M66.8,43.1c0,3.3-1.7,6-3.9,6.8  c0.6,5.7,1.8,10,2.9,12.6C67.3,59,69,52.2,69,43.1c0-9.1-1.7-15.8-3.2-19.4c-1.1,2.6-2.3,6.9-2.9,12.6  C65.1,37.1,66.8,39.8,66.8,43.1z M25,34H13.5v18.2H25V34z"/><text x="0" y="115" fill="#000000" font-size="5px" font-weight="bold" font-family="'Helvetica Neue', Helvetica, Arial-Unicode, Arial, Sans-serif">Created by Gregor Črešnar</text><text x="0" y="120" fill="#000000" font-size="5px" font-weight="bold" font-family="'Helvetica Neue', Helvetica, Arial-Unicode, Arial, Sans-serif">from the Noun Project</text></svg>