<svg width="29" height="28" viewBox="0 0 29 28" fill="none" xmlns="http://www.w3.org/2000/svg">
<path fill-rule="evenodd" clip-rule="evenodd" d="M14.5 28C22.232 28 28.5 21.732 28.5 14C28.5 6.26801 22.232 0 14.5 0C6.76801 0 0.5 6.26801 0.5 14C0.5 21.732 6.76801 28 14.5 28ZM10.5934 8.40001H19.1065C20.0677 8.40001 20.8 9.13231 20.8 10.0935V18.6065C20.8 19.5677 20.0677 20.3 19.1065 20.3H10.5934C9.63228 20.3 8.89997 19.5677 8.89997 18.6065V10.0935C8.89997 9.13231 9.63228 8.40001 10.5934 8.40001ZM18.42 14.4873C18.42 16.3639 16.8181 17.92 14.85 17.92C12.8819 17.92 11.28 16.3639 11.3257 14.4415C11.3257 14.1212 11.3715 13.8008 11.4631 13.4804H10.4104V18.3777C10.4104 18.6523 10.6392 18.8354 10.8681 18.8354H18.8319C19.1065 18.8354 19.2896 18.6065 19.2896 18.3777V13.5262H18.2827C18.3742 13.8008 18.42 14.1669 18.42 14.4873ZM12.5615 14.3042C12.5615 15.54 13.5684 16.5469 14.85 16.5469C16.1315 16.5469 17.1384 15.5858 17.1384 14.3042C17.1384 13.0685 16.1315 12.0615 14.85 12.0615C13.5684 12.0615 12.5615 13.0685 12.5615 14.3042ZM18.7404 12.1531C19.015 12.1531 19.2438 11.9242 19.2438 11.6496V10.4139C19.2438 10.1392 19.015 9.91039 18.7404 9.91039H17.4588C17.1842 9.91039 16.9554 10.1392 16.9554 10.4139V11.6496C16.9554 11.9242 17.1842 12.1531 17.4588 12.1531H18.7404Z" fill="white"/>
</svg>
