<svg
   xmlns:dc="http://purl.org/dc/elements/1.1/"
   xmlns:cc="http://creativecommons.org/ns#"
   xmlns:rdf="http://www.w3.org/1999/02/22-rdf-syntax-ns#"
   xmlns:svg="http://www.w3.org/2000/svg"
   xmlns="http://www.w3.org/2000/svg"
   viewBox="0 0 33.173332 33.173332"
   height="33.173332"
   width="33.173332"
   xml:space="preserve"
   id="svg2"
   version="1.1"><metadata
     id="metadata8"><rdf:RDF><cc:Work
         rdf:about=""><dc:format>image/svg+xml</dc:format><dc:type
           rdf:resource="http://purl.org/dc/dcmitype/StillImage" /></cc:Work></rdf:RDF></metadata><defs
     id="defs6" /><g
     transform="matrix(1.3333333,0,0,-1.3333333,0,33.173333)"
     id="g10"><g
       transform="scale(0.1)"
       id="g12"><path
         id="path14"
         style="fill:#585b5d;fill-opacity:1;fill-rule:nonzero;stroke:none"
         d="M 248.75,0 H 0 V 248.75 H 248.75 V 0" /><path
         id="path16"
         style="fill:#ffffff;fill-opacity:1;fill-rule:nonzero;stroke:none"
         d="M 99.043,39.7188 H 135.07 V 121.77 l 24.407,0.003 0.023,30.25 h -24.43 v 17.465 c 0,0 -0.808,7.981 14.27,8.239 3.301,0.054 10.805,-1.485 10.805,-1.485 l 4.972,27.219 c -3.258,3.211 -12.887,5.531 -27.047,5.57 -22.312,0.059 -39.1872,-11.609 -39.4372,-32.832 -0.2109,-18.004 0,-23.32 0,-23.32 h -15 V 121.953 L 99.043,121.77 V 39.7188" /></g></g></svg>