<svg
   xmlns:dc="http://purl.org/dc/elements/1.1/"
   xmlns:cc="http://creativecommons.org/ns#"
   xmlns:rdf="http://www.w3.org/1999/02/22-rdf-syntax-ns#"
   xmlns:svg="http://www.w3.org/2000/svg"
   xmlns="http://www.w3.org/2000/svg"
   viewBox="0 0 94.853333 144.96001"
   height="144.96001"
   width="94.853333"
   xml:space="preserve"
   id="svg2"
   version="1.1"><metadata
     id="metadata8"><rdf:RDF><cc:Work
         rdf:about=""><dc:format>image/svg+xml</dc:format><dc:type
           rdf:resource="http://purl.org/dc/dcmitype/StillImage" /></cc:Work></rdf:RDF></metadata><defs
     id="defs6"><clipPath
       id="clipPath20"
       clipPathUnits="userSpaceOnUse"><path
         id="path18"
         d="M 0,0 H 711 V 1087 H 0 Z" /></clipPath><clipPath
       id="clipPath26"
       clipPathUnits="userSpaceOnUse"><path
         id="path24"
         d="m 355.703,593.34 c -76.324,0 -138.203,61.879 -138.203,138.207 0,76.324 61.879,138.203 138.203,138.203 76.328,0 138.207,-61.879 138.207,-138.203 0,-76.328 -61.879,-138.207 -138.207,-138.207 z m 0,493.91 C 159.254,1087.25 0,927.996 0,731.547 0,722.848 0.421875,714.254 1.03516,705.715 0.609375,694.465 1.32031,682.148 3.48828,668.523 36.4961,461.121 355.703,0 355.703,0 c 0,0 302.672,432.477 345.59,647.293 0.008,0.051 0.016,0.098 0.023,0.148 6.543,26.977 10.094,55.118 10.094,84.106 0,196.449 -159.254,355.703 -355.707,355.703 z" /></clipPath><linearGradient
       id="linearGradient36"
       spreadMethod="pad"
       gradientTransform="matrix(0,-1087.25,-1087.25,0,355.705,1087.25)"
       gradientUnits="userSpaceOnUse"
       y2="0"
       x2="1"
       y1="0"
       x1="0"><stop
         id="stop28"
         offset="0"
         style="stop-opacity:1;stop-color:#79cb43" /><stop
         id="stop30"
         offset="0.876344"
         style="stop-opacity:1;stop-color:#3a7335" /><stop
         id="stop32"
         offset="0.989247"
         style="stop-opacity:1;stop-color:#1c3917" /><stop
         id="stop34"
         offset="1"
         style="stop-opacity:1;stop-color:#1c3917" /></linearGradient></defs><g
     transform="matrix(1.3333333,0,0,-1.3333333,0,144.96)"
     id="g10"><g
       transform="scale(0.1)"
       id="g12"><g
         id="g14"><g
           clip-path="url(#clipPath20)"
           id="g16"><g
             clip-path="url(#clipPath26)"
             id="g22"><path
               id="path38"
               style="fill:url(#linearGradient36);fill-opacity:1;fill-rule:nonzero;stroke:none"
               d="m 355,0 v 1 h -1 v 1 h -1 v 1 h -1 v 2 h -1 v 1 h -1 v 2 h -1 v 1 h -1 v 2 h -1 v 1 h -1 v 2 h -1 v 1 h -1 v 2 h -1 v 1 h -1 v 2 h -1 v 1 h -1 v 2 h -1 v 1 h -1 v 2 h -1 v 1 h -1 v 2 h -1 v 1 h -1 v 1 h -1 v 2 h -1 v 1 h -1 v 2 h -1 v 1 h -1 v 2 h -1 v 1 h -1 v 2 h -1 v 1 h -1 v 2 h -1 v 1 h -1 v 2 h -1 v 1 h -1 v 2 h -1 v 2 h -1 v 1 h -1 v 2 h -1 v 1 h -1 v 2 h -1 v 1 h -1 v 2 h -1 v 1 h -1 v 2 h -1 v 1 h -1 v 2 h -1 v 1 h -1 v 2 h -1 v 1 h -1 v 2 h -1 v 1 h -1 v 2 h -1 v 1 h -1 v 2 h -1 v 1 h -1 v 2 h -1 v 1 h -1 v 2 h -1 v 2 h -1 v 1 h -1 v 2 h -1 v 1 h -1 v 2 h -1 v 1 h -1 v 2 h -1 v 1 h -1 v 2 h -1 v 1 h -1 v 2 h -1 v 2 h -1 v 1 h -1 v 2 h -1 v 1 h -1 v 2 h -1 v 1 h -1 v 2 h -1 v 1 h -1 v 2 h -1 v 2 h -1 v 1 h -1 v 2 h -1 v 1 h -1 v 2 h -1 v 1 h -1 v 2 h -1 v 1 h -1 v 2 h -1 v 2 h -1 v 1 h -1 v 2 h -1 v 1 h -1 v 2 h -1 v 1 h -1 v 2 h -1 v 2 h -1 v 1 h -1 v 2 h -1 v 1 h -1 v 2 h -1 v 2 h -1 v 1 h -1 v 2 h -1 v 1 h -1 v 2 h -1 v 1 h -1 v 2 h -1 v 2 h -1 v 1 h -1 v 2 h -1 v 1 h -1 v 2 h -1 v 2 h -1 v 1 h -1 v 2 h -1 v 1 h -1 v 2 h -1 v 2 h -1 v 1 h -1 v 2 h -1 v 2 h -1 v 1 h -1 v 2 h -1 v 1 h -1 v 2 h -1 v 2 h -1 v 1 h -1 v 2 h -1 v 1 h -1 v 2 h -1 v 2 h -1 v 1 h -1 v 2 h -1 v 2 h -1 v 1 h -1 v 2 h -1 v 2 h -1 v 1 h -1 v 2 h -1 v 1 h -1 v 2 h -1 v 2 h -1 v 1 h -1 v 2 h -1 v 2 h -1 v 1 h -1 v 2 h -1 v 2 h -1 v 1 h -1 v 2 h -1 v 2 h -1 v 1 h -1 v 2 h -1 v 2 h -1 v 1 h -1 v 2 h -1 v 2 h -1 v 1 h -1 v 2 h -1 v 2 h -1 v 1 h -1 v 2 h -1 v 2 h -1 v 1 h -1 v 2 h -1 v 2 h -1 v 1 h -1 v 2 h -1 v 2 h -1 v 1 h -1 v 2 h -1 v 2 h -1 v 2 h -1 v 1 h -1 v 2 h -1 v 2 h -1 v 1 h -1 v 2 h -1 v 2 h -1 v 1 h -1 v 2 h -1 v 2 h -1 v 2 h -1 v 1 h -1 v 2 h -1 v 2 h -1 v 1 h -1 v 2 h -1 v 2 h -1 v 2 h -1 v 1 h -1 v 2 h -1 v 2 h -1 v 2 h -1 v 1 h -1 v 2 h -1 v 2 h -1 v 2 h -1 v 1 h -1 v 2 h -1 v 2 h -1 v 2 h -1 v 1 h -1 v 2 h -1 v 2 h -1 v 2 h -1 v 1 h -1 v 2 h -1 v 2 h -1 v 2 h -1 v 1 h -1 v 2 h -1 v 2 h -1 v 2 h -1 v 2 h -1 v 1 h -1 v 2 h -1 v 2 h -1 v 2 h -1 v 2 h -1 v 2 h -1 v 1 h -1 v 2 h -1 v 2 h -1 v 2 h -1 v 2 h -1 v 1 h -1 v 2 h -1 v 2 h -1 v 2 h -1 v 2 h -1 v 2 h -1 v 1 h -1 v 2 h -1 v 2 h -1 v 2 h -1 v 2 h -1 v 2 h -1 v 2 h -1 v 1 h -1 v 2 h -1 v 2 h -1 v 2 h -1 v 2 h -1 v 2 h -1 v 2 h -1 v 2 h -1 v 2 h -1 v 1 h -1 v 2 h -1 v 2 h -1 v 2 h -1 v 2 h -1 v 2 h -1 v 2 h -1 v 2 h -1 v 2 h -1 v 2 h -1 v 2 h -1 v 2 h -1 v 2 h -1 v 2 h -1 v 2 h -1 v 1 h -1 v 2 h -1 v 2 h -1 v 2 h -1 v 2 h -1 v 2 h -1 v 2 h -1 v 2 h -1 v 2 h -1 v 2 h -1 v 2 h -1 v 2 h -1 v 3 h -1 v 2 h -1 v 2 h -1 v 2 h -1 v 2 h -1 v 2 h -1 v 2 h -1 v 2 h -1 v 2 h -1 v 2 h -1 v 2 h -1 v 2 h -1 v 2 h -1 v 3 h -1 v 2 h -1 v 2 h -1 v 2 h -1 v 2 h -1 v 2 h -1 v 2 h -1 v 3 h -1 v 2 h -1 v 2 h -1 v 2 h -1 v 3 h -1 v 2 h -1 v 2 h -1 v 2 h -1 v 3 h -1 v 2 h -1 v 2 h -1 v 2 h -1 v 3 h -1 v 2 h -1 v 2 h -1 v 3 h -1 v 2 h -1 v 3 h -1 v 2 h -1 v 2 h -1 v 3 h -1 v 2 h -1 v 3 h -1 v 2 h -1 v 3 h -1 v 2 h -1 v 3 h -1 v 2 h -1 v 3 h -1 v 3 h -1 v 2 h -1 v 3 h -1 v 2 h -1 v 3 h -1 v 3 h -1 v 3 h -1 v 3 h -1 v 3 h -1 v 2 h -1 v 3 h -1 v 3 h -1 v 3 h -1 v 3 h -1 v 4 h -1 v 3 h -1 v 3 h -1 v 3 h -1 v 4 h -1 v 3 h -1 v 4 h -1 v 4 h -1 v 4 H 9 v 4 H 8 v 4 H 7 v 4 H 6 v 5 H 5 v 5 H 4 v 5 H 3 v 6 H 2 v 10 H 1 v 19 H 0 v 5 h 1 v 1 H 0 v 50 h 1 v 13 h 1 v 7 h 1 v 7 h 1 v 6 h 1 v 7 h 1 v 6 h 1 v 5 h 1 v 4 h 1 v 4 h 1 v 3 h 1 v 4 h 1 v 4 h 1 v 4 h 1 v 4 h 1 v 4 h 1 v 3 h 1 v 2 h 1 v 3 h 1 v 3 h 1 v 3 h 1 v 2 h 1 v 3 h 1 v 3 h 1 v 2 h 1 v 3 h 1 v 3 h 1 v 3 h 1 v 2 h 1 v 2 h 1 v 2 h 1 v 2 h 1 v 2 h 1 v 2 h 1 v 2 h 1 v 2 h 1 v 2 h 1 v 2 h 1 v 2 h 1 v 3 h 1 v 2 h 1 v 2 h 1 v 2 h 1 v 1 h 1 v 2 h 1 v 2 h 1 v 1 h 1 v 2 h 1 v 2 h 1 v 1 h 1 v 2 h 1 v 2 h 1 v 1 h 1 v 2 h 1 v 1 h 1 v 2 h 1 v 2 h 1 v 1 h 1 v 2 h 1 v 2 h 1 v 1 h 1 v 2 h 1 v 1 h 1 v 1 h 1 v 2 h 1 v 1 h 1 v 1 h 1 v 2 h 1 v 1 h 1 v 1 h 1 v 2 h 1 v 1 h 1 v 1 h 1 v 2 h 1 v 1 h 1 v 1 h 1 v 2 h 1 v 1 h 1 v 1 h 1 v 2 h 1 v 1 h 1 v 1 h 1 v 1 h 1 v 1 h 1 v 1 h 1 v 2 h 1 v 1 h 1 v 1 h 1 v 1 h 1 v 1 h 1 v 1 h 1 v 1 h 1 v 1 h 1 v 1 h 1 v 1 h 1 v 2 h 1 v 1 h 1 v 1 h 1 v 1 h 1 v 1 h 1 v 1 h 1 v 1 h 1 v 1 h 1 v 1 h 1 v 1 h 1 v 1 h 1 v 1 h 1 v 1 h 1 v 1 h 1 v 1 h 1 v 1 h 1 v 1 h 1 v 1 h 2 v 1 h 1 v 1 h 1 v 1 h 1 v 1 h 1 v 1 h 1 v 1 h 1 v 1 h 1 v 1 h 1 v 1 h 1 v 1 h 2 v 1 h 1 v 1 h 1 v 1 h 1 v 1 h 1 v 1 h 1 v 1 h 2 v 1 h 1 v 1 h 1 v 1 h 2 v 1 h 1 v 1 h 1 v 1 h 2 v 1 h 1 v 1 h 1 v 1 h 2 v 1 h 1 v 1 h 1 v 1 h 2 v 1 h 1 v 1 h 1 v 1 h 2 v 1 h 1 v 1 h 1 v 1 h 2 v 1 h 1 v 1 h 2 v 1 h 1 v 1 h 2 v 1 h 2 v 1 h 1 v 1 h 2 v 1 h 2 v 1 h 1 v 1 h 2 v 1 h 2 v 1 h 1 v 1 h 2 v 1 h 2 v 1 h 1 v 1 h 2 v 1 h 1 v 1 h 2 v 1 h 2 v 1 h 2 v 1 h 2 v 1 h 2 v 1 h 2 v 1 h 2 v 1 h 3 v 1 h 2 v 1 h 2 v 1 h 2 v 1 h 2 v 1 h 2 v 1 h 2 v 1 h 2 v 1 h 2 v 1 h 3 v 1 h 2 v 1 h 3 v 1 h 3 v 1 h 3 v 1 h 2 v 1 h 3 v 1 h 3 v 1 h 3 v 1 h 2 v 1 h 3 v 1 h 3 v 1 h 3 v 1 h 4 v 1 h 4 v 1 h 4 v 1 h 4 v 1 h 4 v 1 h 4 v 1 h 4 v 1 h 3 v 1 h 7 v 1 h 6 v 1 h 7 v 1 h 7 v 1 h 6 v 1 h 12 v 1 h 56 v -1 h 11 v -1 h 7 v -1 h 6 v -1 h 7 v -1 h 6 v -1 h 7 v -1 h 4 v -1 h 4 v -1 h 4 v -1 h 4 v -1 h 3 v -1 h 4 v -1 h 4 v -1 h 4 v -1 h 4 v -1 h 2 v -1 h 3 v -1 h 3 v -1 h 3 v -1 h 2 v -1 h 3 v -1 h 3 v -1 h 3 v -1 h 2 v -1 h 3 v -1 h 3 v -1 h 2 v -1 h 2 v -1 h 2 v -1 h 3 v -1 h 2 v -1 h 2 v -1 h 2 v -1 h 2 v -1 h 2 v -1 h 2 v -1 h 2 v -1 h 2 v -1 h 2 v -1 h 2 v -1 h 2 v -1 h 2 v -1 h 2 v -1 h 2 v -1 h 1 v -1 h 2 v -1 h 2 v -1 h 1 v -1 h 2 v -1 h 1 v -1 h 2 v -1 h 2 v -1 h 1 v -1 h 2 v -1 h 2 v -1 h 1 v -1 h 2 v -1 h 2 v -1 h 1 v -1 h 2 v -1 h 1 v -1 h 1 v -1 h 2 v -1 h 1 v -1 h 1 v -1 h 2 v -1 h 1 v -1 h 1 v -1 h 2 v -1 h 1 v -1 h 1 v -1 h 2 v -1 h 1 v -1 h 1 v -1 h 2 v -1 h 1 v -1 h 1 v -1 h 2 v -1 h 1 v -1 h 1 v -1 h 2 v -1 h 1 v -1 h 1 v -1 h 1 v -1 h 1 v -1 h 1 v -1 h 1 v -1 h 1 v -1 h 1 v -1 h 1 v -1 h 2 v -1 h 1 v -1 h 1 v -1 h 1 v -1 h 1 v -1 h 1 v -1 h 1 v -1 h 1 v -1 h 1 v -1 h 1 v -1 h 2 v -1 h 1 v -1 h 1 v -1 h 1 v -1 h 1 v -1 h 1 v -2 h 1 v -1 h 1 v -1 h 1 v -1 h 1 v -1 h 1 v -1 h 1 v -1 h 1 v -1 h 1 v -1 h 1 v -1 h 1 v -2 h 1 v -1 h 1 v -1 h 1 v -1 h 1 v -1 h 1 v -1 h 1 v -1 h 1 v -1 h 1 v -1 h 1 v -1 h 1 v -2 h 1 v -1 h 1 v -1 h 1 v -2 h 1 v -1 h 1 v -1 h 1 v -2 h 1 v -1 h 1 v -1 h 1 v -2 h 1 v -1 h 1 v -1 h 1 v -2 h 1 v -1 h 1 v -2 h 1 v -1 h 1 v -1 h 1 v -2 h 1 v -1 h 1 v -1 h 1 v -2 h 1 v -1 h 1 v -2 h 1 v -2 h 1 v -1 h 1 v -2 h 1 v -2 h 1 v -1 h 1 v -2 h 1 v -1 h 1 v -2 h 1 v -2 h 1 v -1 h 1 v -2 h 1 v -2 h 1 v -1 h 1 v -2 h 1 v -2 h 1 v -1 h 1 v -3 h 1 v -2 h 1 v -2 h 1 v -2 h 1 v -2 h 1 v -2 h 1 v -2 h 1 v -2 h 1 v -2 h 1 v -2 h 1 v -2 h 1 v -2 h 1 v -2 h 1 v -3 h 1 v -2 h 1 v -3 h 1 v -2 h 1 v -3 h 1 v -3 h 1 v -3 h 1 v -2 h 1 v -3 h 1 v -3 h 1 v -3 h 1 v -2 h 1 v -3 h 1 v -3 h 1 v -4 h 1 v -4 h 1 v -4 h 1 v -4 h 1 v -4 h 1 v -4 h 1 v -4 h 1 v -4 h 1 v -6 h 1 v -6 h 1 v -7 h 1 v -6 h 1 v -7 h 1 v -10 h 1 v -59 h -1 v -12 h -1 v -8 h -1 v -5 h -1 v -6 h -1 v -6 h -1 v -6 h -1 v -6 h -1 v -4 h -1 v -5 h -1 v -4 h -1 v -5 h -1 v -4 h -1 v -4 h -1 v -4 h -1 v -3 h -1 v -4 h -1 v -3 h -1 v -4 h -1 v -4 h -1 v -3 h -1 v -3 h -1 v -3 h -1 v -3 h -1 v -3 h -1 v -3 h -1 v -3 h -1 v -3 h -1 v -3 h -1 v -3 h -1 v -3 h -1 v -2 h -1 v -3 h -1 v -3 h -1 v -3 h -1 v -2 h -1 v -3 h -1 v -3 h -1 v -2 h -1 v -3 h -1 v -2 h -1 v -3 h -1 v -2 h -1 v -3 h -1 v -2 h -1 v -3 h -1 v -2 h -1 v -2 h -1 v -3 h -1 v -2 h -1 v -2 h -1 v -3 h -1 v -2 h -1 v -2 h -1 v -3 h -1 v -2 h -1 v -2 h -1 v -3 h -1 v -2 h -1 v -2 h -1 v -2 h -1 v -3 h -1 v -2 h -1 v -2 h -1 v -2 h -1 v -2 h -1 v -3 h -1 v -2 h -1 v -2 h -1 v -2 h -1 v -2 h -1 v -2 h -1 v -2 h -1 v -3 h -1 v -2 h -1 v -2 h -1 v -2 h -1 v -2 h -1 v -2 h -1 v -2 h -1 v -2 h -1 v -2 h -1 v -2 h -1 v -2 h -1 v -2 h -1 v -2 h -1 v -2 h -1 v -2 h -1 v -2 h -1 v -2 h -1 v -2 h -1 v -2 h -1 v -3 h -1 v -2 h -1 v -2 h -1 v -1 h -1 v -2 h -1 v -2 h -1 v -2 h -1 v -2 h -1 v -2 h -1 v -2 h -1 v -2 h -1 v -2 h -1 v -2 h -1 v -2 h -1 v -2 h -1 v -2 h -1 v -2 h -1 v -2 h -1 v -2 h -1 v -1 h -1 v -2 h -1 v -2 h -1 v -2 h -1 v -2 h -1 v -2 h -1 v -2 h -1 v -2 h -1 v -1 h -1 v -2 h -1 v -2 h -1 v -2 h -1 v -2 h -1 v -2 h -1 v -2 h -1 v -1 h -1 v -2 h -1 v -2 h -1 v -2 h -1 v -2 h -1 v -2 h -1 v -1 h -1 v -2 h -1 v -2 h -1 v -2 h -1 v -2 h -1 v -2 h -1 v -1 h -1 v -2 h -1 v -2 h -1 v -2 h -1 v -1 h -1 v -2 h -1 v -2 h -1 v -2 h -1 v -2 h -1 v -1 h -1 v -2 h -1 v -2 h -1 v -2 h -1 v -2 h -1 v -1 h -1 v -2 h -1 v -2 h -1 v -2 h -1 v -1 h -1 v -2 h -1 v -2 h -1 v -2 h -1 v -1 h -1 v -2 h -1 v -2 h -1 v -2 h -1 v -1 h -1 v -2 h -1 v -2 h -1 v -2 h -1 v -1 h -1 v -2 h -1 v -2 h -1 v -1 h -1 v -2 h -1 v -2 h -1 v -2 h -1 v -1 h -1 v -2 h -1 v -2 h -1 v -1 h -1 v -2 h -1 v -2 h -1 v -1 h -1 v -2 h -1 v -2 h -1 v -2 h -1 v -1 h -1 v -2 h -1 v -2 h -1 v -1 h -1 v -2 h -1 v -2 h -1 v -1 h -1 v -2 h -1 v -2 h -1 v -1 h -1 v -2 h -1 v -2 h -1 v -1 h -1 v -2 h -1 v -2 h -1 v -1 h -1 v -2 h -1 v -2 h -1 v -1 h -1 v -2 h -1 v -2 h -1 v -1 h -1 v -2 h -1 v -2 h -1 v -1 h -1 v -2 h -1 v -2 h -1 v -1 h -1 v -2 h -1 v -1 h -1 v -2 h -1 v -2 h -1 v -1 h -1 v -2 h -1 v -2 h -1 v -1 h -1 v -2 h -1 v -1 h -1 v -2 h -1 v -2 h -1 v -1 h -1 v -2 h -1 v -2 h -1 v -1 h -1 v -2 h -1 v -1 h -1 v -2 h -1 v -2 h -1 v -1 h -1 v -2 h -1 v -1 h -1 v -2 h -1 v -2 h -1 v -1 h -1 v -2 h -1 v -2 h -1 v -1 h -1 v -2 h -1 v -1 h -1 v -2 h -1 v -1 h -1 v -2 h -1 v -2 h -1 v -1 h -1 v -2 h -1 v -1 h -1 v -2 h -1 v -2 h -1 v -1 h -1 v -2 h -1 v -1 h -1 v -2 h -1 v -1 h -1 v -2 h -1 v -2 h -1 v -1 h -1 v -2 h -1 v -1 h -1 v -2 h -1 v -1 h -1 v -2 h -1 v -2 h -1 v -1 h -1 v -2 h -1 v -1 h -1 v -2 h -1 v -1 h -1 v -2 h -1 v -1 h -1 v -2 h -1 v -2 h -1 v -1 h -1 v -2 h -1 v -1 h -1 v -2 h -1 v -1 h -1 v -2 h -1 v -1 h -1 v -2 h -1 v -1 h -1 v -2 h -1 v -2 h -1 v -1 h -1 v -2 h -1 v -1 h -1 v -2 h -1 v -1 h -1 v -2 h -1 v -1 h -1 v -2 h -1 v -1 h -1 v -2 h -1 v -1 h -1 v -2 h -1 v -1 h -1 v -2 h -1 v -1 h -1 v -2 h -1 v -2 h -1 v -1 h -1 v -2 h -1 v -1 h -1 v -2 h -1 v -1 h -1 v -2 h -1 v -1 h -1 v -2 h -1 v -1 h -1 v -2 h -1 v -1 h -1 v -2 h -1 v -1 h -1 v -2 h -1 v -1 h -1 v -2 h -1 v -1 h -1 v -2 h -1 v -1 h -1 v -2 h -1 v -1 h -1 v -2 h -1 v -1 h -1 v -2 h -1 v -1 h -1 v -1 h -1 v -2 h -1 v -1 h -1 v -2 h -1 v -1 h -1 v -2 h -1 v -1 h -1 v -2 h -1 v -1 h -1 v -2 h -1 v -1 h -1 v -2 h -1 v -1 h -1 v -2 h -1 v -1 h -1 v -2 h -1 v -1 h -1 v -1 h -1 v -2 h -1 V 9 h -1 V 7 h -1 V 6 h -1 V 4 h -1 V 3 h -1 V 1 h -1 V 0 Z m -12,595 v -1 h 26 v 1 h 7 v 1 h 6 v 1 h 4 v 1 h 4 v 1 h 4 v 1 h 4 v 1 h 2 v 1 h 3 v 1 h 3 v 1 h 2 v 1 h 3 v 1 h 2 v 1 h 2 v 1 h 2 v 1 h 2 v 1 h 2 v 1 h 2 v 1 h 1 v 1 h 2 v 1 h 2 v 1 h 1 v 1 h 2 v 1 h 2 v 1 h 1 v 1 h 1 v 1 h 2 v 1 h 1 v 1 h 1 v 1 h 2 v 1 h 1 v 1 h 1 v 1 h 1 v 1 h 1 v 1 h 2 v 1 h 1 v 1 h 1 v 1 h 1 v 1 h 1 v 1 h 1 v 1 h 1 v 1 h 1 v 1 h 1 v 1 h 1 v 1 h 1 v 1 h 1 v 1 h 1 v 2 h 1 v 1 h 1 v 1 h 1 v 1 h 1 v 1 h 1 v 2 h 1 v 1 h 1 v 1 h 1 v 2 h 1 v 1 h 1 v 1 h 1 v 2 h 1 v 2 h 1 v 1 h 1 v 2 h 1 v 1 h 1 v 2 h 1 v 2 h 1 v 2 h 1 v 2 h 1 v 2 h 1 v 2 h 1 v 2 h 1 v 2 h 1 v 3 h 1 v 3 h 1 v 2 h 1 v 3 h 1 v 3 h 1 v 4 h 1 v 4 h 1 v 4 h 1 v 6 h 1 v 7 h 1 v 29 h -1 v 7 h -1 v 6 h -1 v 4 h -1 v 4 h -1 v 4 h -1 v 3 h -1 v 3 h -1 v 3 h -1 v 2 h -1 v 3 h -1 v 2 h -1 v 2 h -1 v 2 h -1 v 2 h -1 v 2 h -1 v 2 h -1 v 2 h -1 v 2 h -1 v 1 h -1 v 2 h -1 v 2 h -1 v 1 h -1 v 2 h -1 v 1 h -1 v 1 h -1 v 2 h -1 v 1 h -1 v 1 h -1 v 2 h -1 v 1 h -1 v 1 h -1 v 1 h -1 v 2 h -1 v 1 h -1 v 1 h -1 v 1 h -1 v 1 h -1 v 1 h -1 v 1 h -1 v 1 h -1 v 1 h -1 v 1 h -1 v 1 h -1 v 1 h -1 v 1 h -1 v 1 h -1 v 1 h -2 v 1 h -1 v 1 h -1 v 1 h -1 v 1 h -2 v 1 h -1 v 1 h -1 v 1 h -2 v 1 h -1 v 1 h -1 v 1 h -2 v 1 h -2 v 1 h -1 v 1 h -2 v 1 h -2 v 1 h -1 v 1 h -2 v 1 h -2 v 1 h -2 v 1 h -2 v 1 h -2 v 1 h -2 v 1 h -2 v 1 h -3 v 1 h -3 v 1 h -2 v 1 h -3 v 1 h -3 v 1 h -4 v 1 h -4 v 1 h -4 v 1 h -7 v 1 h -6 v 1 h -28 v -1 h -7 v -1 h -6 v -1 h -4 v -1 h -4 v -1 h -4 v -1 h -3 v -1 h -3 v -1 h -3 v -1 h -3 v -1 h -2 v -1 h -2 v -1 h -3 v -1 h -2 v -1 h -2 v -1 h -2 v -1 h -2 v -1 h -1 v -1 h -2 v -1 h -2 v -1 h -1 v -1 h -2 v -1 h -2 v -1 h -1 v -1 h -2 v -1 h -1 v -1 h -1 v -1 h -2 v -1 h -1 v -1 h -1 v -1 h -2 v -1 h -1 v -1 h -1 v -1 h -1 v -1 h -1 v -1 h -1 v -1 h -1 v -1 h -2 v -1 h -1 v -1 h -1 v -1 h -1 v -1 h -1 v -1 h -1 v -2 h -1 v -1 h -1 v -1 h -1 v -1 h -1 v -1 h -1 v -1 h -1 v -1 h -1 v -1 h -1 v -2 h -1 v -1 h -1 v -1 h -1 v -2 h -1 v -1 h -1 v -1 h -1 v -2 h -1 v -1 h -1 v -2 h -1 v -2 h -1 v -1 h -1 v -2 h -1 v -2 h -1 v -1 h -1 v -3 h -1 v -2 h -1 v -2 h -1 v -2 h -1 v -2 h -1 v -2 h -1 v -3 h -1 v -3 h -1 v -2 h -1 v -3 h -1 v -4 h -1 v -4 h -1 v -3 h -1 v -5 h -1 v -7 h -1 v -8 h -1 v -21 h 1 v -8 h 1 v -7 h 1 v -5 h 1 v -3 h 1 v -4 h 1 v -4 h 1 v -3 h 1 v -2 h 1 v -3 h 1 v -3 h 1 v -2 h 1 v -2 h 1 v -2 h 1 v -2 h 1 v -2 h 1 v -2 h 1 v -2 h 1 v -2 h 1 v -1 h 1 v -2 h 1 v -2 h 1 v -1 h 1 v -2 h 1 v -1 h 1 v -2 h 1 v -1 h 1 v -1 h 1 v -2 h 1 v -1 h 1 v -1 h 1 v -2 h 1 v -1 h 1 v -1 h 1 v -1 h 1 v -1 h 1 v -1 h 1 v -1 h 1 v -2 h 1 v -1 h 1 v -1 h 1 v -1 h 1 v -1 h 2 v -1 h 1 v -1 h 1 v -1 h 1 v -1 h 1 v -1 h 1 v -1 h 1 v -1 h 1 v -1 h 2 v -1 h 1 v -1 h 2 v -1 h 1 v -1 h 1 v -1 h 2 v -1 h 1 v -1 h 1 v -1 h 2 v -1 h 2 v -1 h 1 v -1 h 2 v -1 h 2 v -1 h 1 v -1 h 2 v -1 h 3 v -1 h 2 v -1 h 2 v -1 h 2 v -1 h 2 v -1 h 3 v -1 h 2 v -1 h 3 v -1 h 3 v -1 h 3 v -1 h 4 v -1 h 4 v -1 h 4 v -1 h 7 v -1" /></g></g></g></g></g></svg>