<svg
   xmlns:dc="http://purl.org/dc/elements/1.1/"
   xmlns:cc="http://creativecommons.org/ns#"
   xmlns:rdf="http://www.w3.org/1999/02/22-rdf-syntax-ns#"
   xmlns:svg="http://www.w3.org/2000/svg"
   xmlns="http://www.w3.org/2000/svg"
   viewBox="0 0 33.173332 33.173332"
   height="33.173332"
   width="33.173332"
   xml:space="preserve"
   id="svg2"
   version="1.1"><metadata
     id="metadata8"><rdf:RDF><cc:Work
         rdf:about=""><dc:format>image/svg+xml</dc:format><dc:type
           rdf:resource="http://purl.org/dc/dcmitype/StillImage" /></cc:Work></rdf:RDF></metadata><defs
     id="defs6" /><g
     transform="matrix(1.3333333,0,0,-1.3333333,0,33.173333)"
     id="g10"><g
       transform="scale(0.1)"
       id="g12"><path
         id="path14"
         style="fill:#585b5d;fill-opacity:1;fill-rule:nonzero;stroke:none"
         d="M 248.75,0 H 0 V 248.75 H 248.75 V 0" /><path
         id="path16"
         style="fill:#ffffff;fill-opacity:1;fill-rule:nonzero;stroke:none"
         d="m 124.328,184.555 c 10.738,0 19.442,-8.707 19.442,-19.446 0,-10.734 -8.704,-19.441 -19.442,-19.441 -10.738,0 -19.441,8.707 -19.441,19.441 0,10.739 8.703,19.446 19.441,19.446 z m 0,-65.059 c 25.192,0 45.613,20.422 45.613,45.613 0,25.196 -20.421,45.618 -45.613,45.618 -25.1913,0 -45.6171,-20.422 -45.6171,-45.618 0,-25.191 20.4258,-45.613 45.6171,-45.613" /><path
         id="path18"
         style="fill:#ffffff;fill-opacity:1;fill-rule:nonzero;stroke:none"
         d="m 146.152,88.1563 c 8.125,2.2968 15.875,5.8437 22.965,10.6484 5.477,3.7033 6.906,11.1403 3.203,16.6133 -3.711,5.469 -11.136,6.906 -16.613,3.203 -18.516,-12.527 -44.133,-12.558 -62.6797,-0.055 -5.4804,3.688 -12.9179,2.25 -16.6093,-3.234 -3.6914,-5.48 -2.25,-12.914 3.2304,-16.6093 7.9688,-5.3711 16.7579,-9.1875 25.9766,-11.3946 L 81.4375,59.7383 c -4.7656,-5.4336 -4.2227,-13.7031 1.2148,-18.4688 5.4336,-4.7617 13.6993,-4.2187 18.4647,1.2149 l 25.137,28.6719 25.133,-28.6719 c 4.765,-5.4336 13.035,-5.9766 18.468,-1.2149 5.434,4.7657 5.977,13.0352 1.211,18.4688 l -24.914,28.418" /></g></g></svg>