<svg
   xmlns:dc="http://purl.org/dc/elements/1.1/"
   xmlns:cc="http://creativecommons.org/ns#"
   xmlns:rdf="http://www.w3.org/1999/02/22-rdf-syntax-ns#"
   xmlns:svg="http://www.w3.org/2000/svg"
   xmlns="http://www.w3.org/2000/svg"
   viewBox="0 0 236.26666 203.72"
   height="203.72"
   width="236.26666"
   xml:space="preserve"
   id="svg2"
   version="1.1"><metadata
     id="metadata8"><rdf:RDF><cc:Work
         rdf:about=""><dc:format>image/svg+xml</dc:format><dc:type
           rdf:resource="http://purl.org/dc/dcmitype/StillImage" /></cc:Work></rdf:RDF></metadata><defs
     id="defs6" /><g
     transform="matrix(1.3333333,0,0,-1.3333333,0,203.72)"
     id="g10"><g
       transform="scale(0.1)"
       id="g12"><path
         id="path14"
         style="fill:#5ec232;fill-opacity:1;fill-rule:nonzero;stroke:none"
         d="m 1120.87,1232.34 c 0,118.84 96.69,215.53 215.54,215.53 118.84,0 215.53,-96.69 215.53,-215.53 0,-118.85 -96.69,-215.54 -215.53,-215.54 -118.85,0 -215.54,96.69 -215.54,215.54 z M 882.047,613.59 c -118.852,0 -215.539,96.687 -215.539,215.535 0,118.848 96.687,215.535 215.539,215.535 118.843,0 215.533,-96.687 215.533,-215.535 0,-118.848 -96.69,-215.535 -215.533,-215.535 z m -665.859,618.75 c 0,118.84 96.687,215.53 215.535,215.53 118.847,0 215.539,-96.69 215.539,-215.53 0,-118.85 -96.692,-215.54 -215.539,-215.54 -118.848,0 -215.535,96.69 -215.535,215.54 z M 1553.72,1032.31 c 48.52,52.67 78.22,122.94 78.22,200.03 0,162.96 -132.58,295.53 -295.53,295.53 -162.96,0 -295.54,-132.57 -295.54,-295.53 0,-80.68 32.53,-153.89 85.12,-207.27 -4.79,-3.35 -9.46,-6.87 -14.08,-10.47 -54.23,67.07 -137.101,110.06 -229.863,110.06 -90.863,0 -172.246,-41.25 -226.504,-105.96 -3.797,2.85 -7.676,5.59 -11.59,8.28 51.512,53.21 83.309,125.62 83.309,205.36 0,162.96 -132.578,295.53 -295.539,295.53 -162.957,0 -295.535,-132.57 -295.535,-295.53 0,-77.32 29.882,-147.77 78.664,-200.5 C -78.9141,854.188 12.457,325.109 16.7383,301.371 c 3.4844,-19.332 20.332,-32.902 39.3086,-32.902 2.3554,0 4.7383,0.222 7.1289,0.652 21.7383,3.899 36.1953,24.688 32.2969,46.43 C 94.5,320.949 3.98438,846.047 282.52,977.387 c 43.828,-25.746 94.8,-40.586 149.203,-40.586 52.5,0 101.804,13.82 144.578,37.926 11.203,-6.098 22.004,-12.957 32.176,-20.68 1.449,-1.098 2.976,-2 4.515,-2.875 -16.957,-37.234 -26.484,-78.535 -26.484,-122.047 0,-79.676 31.75,-152.039 83.191,-205.242 C 440.781,462.031 466.477,55.4219 467.758,37.1914 469.246,16.1094 486.805,0 507.621,0 c 0.942,0 1.895,0.03125 2.852,0.101563 22.035,1.546877 38.64,20.679737 37.09,42.718737 -0.293,4.1211 -25.954,405.8987 189.218,529.0857 42.934,-24.343 92.485,-38.316 145.266,-38.316 53.734,0 104.125,14.488 147.593,39.656 C 1245.42,451.969 1216.41,47.3086 1216.09,43.1797 1214.33,21.1602 1230.77,1.89063 1252.79,0.128906 1253.87,0.0390625 1254.94,0 1256,0 c 20.65,0 38.17,15.8789 39.83,36.8281 1.47,18.4024 31.12,428.4339 -199.59,588.9919 50.35,53.02 81.34,124.586 81.34,203.305 0,41.52 -8.64,81.043 -24.17,116.93 1.27,0.804 2.56,1.558 3.75,2.523 11.61,9.379 24.02,17.625 36.98,24.817 42.23,-23.297 90.72,-36.594 142.27,-36.594 54.72,0 105.98,15.008 149.98,41.039 290.57,-138.231 187.4,-720.09 186.3,-726.07 -3.99,-21.719 10.37,-42.579 32.09,-46.571 2.45,-0.461 4.89,-0.668 7.29,-0.668 18.92,0 35.73,13.457 39.29,32.731 4.82,26.078 108.14,608.457 -197.64,795.048" /></g></g></svg>