<svg
   xmlns:dc="http://purl.org/dc/elements/1.1/"
   xmlns:cc="http://creativecommons.org/ns#"
   xmlns:rdf="http://www.w3.org/1999/02/22-rdf-syntax-ns#"
   xmlns:svg="http://www.w3.org/2000/svg"
   xmlns="http://www.w3.org/2000/svg"
   viewBox="0 0 236.44 195.01334"
   height="195.01334"
   width="236.44"
   xml:space="preserve"
   id="svg2"
   version="1.1"><metadata
     id="metadata8"><rdf:RDF><cc:Work
         rdf:about=""><dc:format>image/svg+xml</dc:format><dc:type
           rdf:resource="http://purl.org/dc/dcmitype/StillImage" /></cc:Work></rdf:RDF></metadata><defs
     id="defs6" /><g
     transform="matrix(1.3333333,0,0,-1.3333333,0,195.01333)"
     id="g10"><g
       transform="scale(0.1)"
       id="g12"><path
         id="path14"
         style="fill:#5ec232;fill-opacity:1;fill-rule:nonzero;stroke:none"
         d="m 310.465,263.66 c 158.418,0 384.375,-30.801 577.406,-174.0584 203.479,136.5074 439.079,165.8474 603.789,165.8474 86.67,0 157.67,-7.89 201.67,-14.429 v 1120.32 c -69.31,9.47 -136.46,14.26 -200.07,14.26 -418.26,0 -572.85,-203.79 -574.362,-205.84 -6.933,-9.45 -17.664,-15.37 -29.347,-16.21 -11.641,-0.82 -23.149,3.46 -31.371,11.81 -176.969,179.52 -410.157,217.2 -574.614,217.2 -90.593,0 -164.597,-11.39 -203.566,-18.9 L 80,242.922 c 49.301,9.156 131.273,20.738 230.465,20.738 z M 886.672,0 C 877.781,0 868.918,2.94922 861.609,8.82031 681.734,153.328 462.613,183.66 310.465,183.66 161.074,183.66 51.3789,155.02 50.2891,154.738 38.293,151.559 25.4727,154.109 15.625,161.691 5.78516,169.262 0,180.969 0,193.391 V 1395.9 c 0,18.18 12.2617,34.07 29.8438,38.69 4.3515,1.14 108.2302,27.97 253.7222,27.97 170.579,0 409.379,-37.66 601.145,-211.82 67.242,65.92 251.359,204.86 608.549,204.86 78.03,0 160.9,-6.79 246.27,-20.18 19.46,-3.06 33.8,-19.82 33.8,-39.52 V 193.391 c 0,-12.129 -5.5,-23.602 -14.97,-31.2 -9.46,-7.589 -21.86,-10.472 -33.69,-7.851 -0.93,0.199 -97.41,21.109 -233.01,21.109 -159.59,0 -390.02,-29.121 -581.527,-167.83962 C 903.113,2.53125 894.883,0 886.672,0" /><path
         id="path16"
         style="fill:#5ec232;fill-opacity:1;fill-rule:nonzero;stroke:none"
         d="m 1000.34,345.949 c -13.695,0 -27.024,7.031 -34.485,19.68 -11.23,19.019 -4.917,43.543 14.106,54.769 108.409,64.008 292.149,144.446 634.709,104.125 21.95,-2.578 37.64,-22.46 35.06,-44.406 -2.59,-21.937 -22.44,-37.617 -44.4,-35.047 -355.4,41.805 -521.98,-56.531 -584.7,-93.55 -6.38,-3.77 -13.38,-5.571 -20.29,-5.571" /><path
         id="path18"
         style="fill:#5ec232;fill-opacity:1;fill-rule:nonzero;stroke:none"
         d="m 1000.34,636.477 c -13.695,0 -27.024,7.031 -34.485,19.675 -11.23,19.024 -4.917,43.547 14.106,54.778 108.409,64.004 292.149,144.433 634.709,104.121 21.95,-2.578 37.64,-22.461 35.06,-44.406 -2.59,-21.934 -22.44,-37.625 -44.4,-35.047 -355.4,41.785 -521.98,-56.535 -584.7,-93.555 -6.38,-3.77 -13.38,-5.566 -20.29,-5.566" /><path
         id="path20"
         style="fill:#5ec232;fill-opacity:1;fill-rule:nonzero;stroke:none"
         d="m 1000.34,927.004 c -13.695,0 -27.024,7.031 -34.485,19.676 -11.23,19.023 -4.917,43.547 14.106,54.78 108.409,64 292.159,144.4 634.709,104.13 21.94,-2.58 37.63,-22.46 35.06,-44.4 -2.58,-21.94 -22.44,-37.58 -44.4,-35.06 -355.4,41.79 -521.98,-56.54 -584.7,-93.56 -6.38,-3.769 -13.38,-5.566 -20.29,-5.566" /><path
         id="path22"
         style="fill:#5ec232;fill-opacity:1;fill-rule:nonzero;stroke:none"
         d="m 759.961,345.949 c -6.91,0 -13.91,1.801 -20.297,5.571 -62.711,37.019 -229.273,135.367 -584.691,93.55 -21.953,-2.582 -41.821,13.11 -44.403,35.047 -2.582,21.946 13.114,41.828 35.055,44.406 342.59,40.321 526.305,-40.117 634.711,-104.125 19.023,-11.226 25.34,-35.75 14.105,-54.769 -7.461,-12.649 -20.793,-19.68 -34.48,-19.68" /><path
         id="path24"
         style="fill:#5ec232;fill-opacity:1;fill-rule:nonzero;stroke:none"
         d="m 759.961,636.477 c -6.91,0 -13.91,1.796 -20.297,5.566 -62.711,37.02 -229.273,135.391 -584.691,93.555 -21.953,-2.59 -41.821,13.113 -44.403,35.047 -2.582,21.945 13.114,41.828 35.055,44.406 342.59,40.332 526.305,-40.129 634.711,-104.121 19.023,-11.231 25.34,-35.754 14.105,-54.778 -7.461,-12.644 -20.793,-19.675 -34.48,-19.675" /><path
         id="path26"
         style="fill:#5ec232;fill-opacity:1;fill-rule:nonzero;stroke:none"
         d="m 759.961,927.004 c -6.91,0 -13.91,1.797 -20.297,5.566 -62.715,37.032 -229.309,135.37 -584.691,93.56 -21.953,-2.52 -41.825,13.12 -44.403,35.06 -2.578,21.94 13.118,41.82 35.055,44.4 342.527,40.29 526.305,-40.13 634.711,-104.13 19.023,-11.233 25.34,-35.757 14.105,-54.78 -7.461,-12.645 -20.793,-19.676 -34.48,-19.676" /></g></g></svg>