<svg
   xmlns:dc="http://purl.org/dc/elements/1.1/"
   xmlns:cc="http://creativecommons.org/ns#"
   xmlns:rdf="http://www.w3.org/1999/02/22-rdf-syntax-ns#"
   xmlns:svg="http://www.w3.org/2000/svg"
   xmlns="http://www.w3.org/2000/svg"
   viewBox="0 0 233.53333 271.64001"
   height="271.64001"
   width="233.53333"
   xml:space="preserve"
   id="svg2"
   version="1.1"><metadata
     id="metadata8"><rdf:RDF><cc:Work
         rdf:about=""><dc:format>image/svg+xml</dc:format><dc:type
           rdf:resource="http://purl.org/dc/dcmitype/StillImage" /></cc:Work></rdf:RDF></metadata><defs
     id="defs6" /><g
     transform="matrix(1.3333333,0,0,-1.3333333,0,271.64)"
     id="g10"><g
       transform="scale(0.1)"
       id="g12"><path
         id="path14"
         style="fill:#5ec232;fill-opacity:1;fill-rule:nonzero;stroke:none"
         d="m 875.738,75.6016 c -441.195,0 -800.1364,358.9374 -800.1364,800.1364 0,441.202 358.9414,800.142 800.1364,800.142 441.192,0 800.132,-358.94 800.132,-800.142 0,-441.199 -358.94,-800.1364 -800.132,-800.1364 z M 1062.32,1731.41 c 0.01,0.38 0.06,0.76 0.06,1.14 v 252.29 c 0,28.98 -23.49,52.47 -52.47,52.47 H 741.57 c -28.98,0 -52.472,-23.49 -52.472,-52.47 v -252.29 c 0,-0.38 0.047,-0.76 0.058,-1.14 C 295.613,1645.67 0,1294.61 0,875.738 0,392.852 392.852,0 875.738,0 c 482.882,0 875.742,392.852 875.742,875.738 0,418.872 -295.62,769.922 -689.16,855.672" /><path
         id="path16"
         style="fill:#5ec232;fill-opacity:1;fill-rule:nonzero;stroke:none"
         d="M 1166.85,667.852 908.156,926.551 c -11.179,11.179 -26.957,15.187 -42.222,12.347 H 472.387 c -28.981,0 -52.477,-23.488 -52.477,-52.468 v -8.75 c 0,-28.981 23.496,-52.469 52.477,-52.469 H 848.703 L 1086.46,587.449 c 18.83,-18.828 50.71,-17.48 71.2,3.02 l 6.18,6.179 c 20.5,20.493 21.84,52.372 3.01,71.204" /><path
         id="path18"
         style="fill:#5ec232;fill-opacity:1;fill-rule:nonzero;stroke:none"
         d="m 873.992,1477.54 c 16.906,0 30.61,13.71 30.61,30.62 v 90.37 c 0,16.9 -13.704,30.61 -30.61,30.61 -16.906,0 -30.609,-13.71 -30.609,-30.61 v -90.37 c 0,-16.91 13.703,-30.62 30.609,-30.62" /><path
         id="path20"
         style="fill:#5ec232;fill-opacity:1;fill-rule:nonzero;stroke:none"
         d="m 873.992,257.141 c -16.906,0 -30.609,-13.711 -30.609,-30.61 v -90.383 c 0,-16.898 13.703,-30.609 30.609,-30.609 16.906,0 30.61,13.711 30.61,30.609 v 90.383 c 0,16.899 -13.704,30.61 -30.61,30.61" /><path
         id="path22"
         style="fill:#5ec232;fill-opacity:1;fill-rule:nonzero;stroke:none"
         d="m 1615.33,906.352 h -90.38 c -16.9,0 -30.61,-13.704 -30.61,-30.614 0,-16.898 13.71,-30.609 30.61,-30.609 h 90.38 c 16.9,0 30.61,13.711 30.61,30.609 0,16.91 -13.71,30.614 -30.61,30.614" /><path
         id="path24"
         style="fill:#5ec232;fill-opacity:1;fill-rule:nonzero;stroke:none"
         d="m 257.133,875.738 c 0,16.91 -13.703,30.614 -30.61,30.614 h -90.375 c -16.906,0 -30.609,-13.704 -30.609,-30.614 0,-16.898 13.703,-30.609 30.609,-30.609 h 90.375 c 16.907,0 30.61,13.711 30.61,30.609" /><path
         id="path26"
         style="fill:#5ec232;fill-opacity:1;fill-rule:nonzero;stroke:none"
         d="m 332.059,1214.96 -72.414,54.07 c -13.543,10.11 -32.723,7.33 -42.84,-6.22 -10.114,-13.54 -7.332,-32.72 6.215,-42.84 l 72.414,-54.07 c 13.546,-10.11 32.726,-7.33 42.839,6.22 10.114,13.54 7.332,32.72 -6.214,42.84" /><path
         id="path28"
         style="fill:#5ec232;fill-opacity:1;fill-rule:nonzero;stroke:none"
         d="m 522.457,1423.04 c 8.731,-14.47 27.543,-19.13 42.02,-10.4 14.476,8.73 19.136,27.54 10.406,42.02 l -46.668,77.39 c -8.731,14.47 -27.543,19.13 -42.02,10.4 -14.476,-8.73 -19.136,-27.54 -10.406,-42.02 l 46.668,-77.39" /><path
         id="path30"
         style="fill:#5ec232;fill-opacity:1;fill-rule:nonzero;stroke:none"
         d="m 1213.42,330.961 c -10.2,13.488 -29.4,16.16 -42.88,5.961 -13.49,-10.192 -16.15,-29.391 -5.96,-42.883 l 54.51,-72.078 c 10.19,-13.492 29.39,-16.16 42.87,-5.961 13.49,10.191 16.15,29.391 5.96,42.879 l -54.5,72.082" /><path
         id="path32"
         style="fill:#5ec232;fill-opacity:1;fill-rule:nonzero;stroke:none"
         d="m 294.145,587.398 -71.047,-55.859 c -13.289,-10.449 -15.594,-29.687 -5.145,-42.98 10.449,-13.289 29.692,-15.59 42.985,-5.149 l 71.042,55.86 c 13.29,10.449 15.594,29.691 5.145,42.98 -10.449,13.289 -29.691,15.59 -42.98,5.148" /><path
         id="path34"
         style="fill:#5ec232;fill-opacity:1;fill-rule:nonzero;stroke:none"
         d="m 571.707,336.422 c -13.371,10.34 -32.598,7.879 -42.941,-5.492 l -55.289,-71.489 c -10.34,-13.371 -7.883,-32.589 5.488,-42.941 13.375,-10.34 32.598,-7.879 42.941,5.488 l 55.289,71.492 c 10.34,13.372 7.883,32.602 -5.488,42.942" /><path
         id="path36"
         style="fill:#5ec232;fill-opacity:1;fill-rule:nonzero;stroke:none"
         d="m 1262.62,1537.5 c -13.37,10.34 -32.6,7.89 -42.94,-5.48 l -55.29,-71.49 c -10.34,-13.37 -7.88,-32.6 5.49,-42.94 13.37,-10.34 32.6,-7.89 42.94,5.48 l 55.29,71.49 c 10.34,13.37 7.88,32.6 -5.49,42.94" /><path
         id="path38"
         style="fill:#5ec232;fill-opacity:1;fill-rule:nonzero;stroke:none"
         d="m 1448.14,1166.23 73.38,52.76 c 13.73,9.87 16.85,28.99 6.99,42.72 -9.87,13.73 -29,16.85 -42.73,6.99 l -73.37,-52.76 c -13.73,-9.87 -16.86,-28.99 -6.99,-42.72 9.87,-13.73 29,-16.85 42.72,-6.99" /><path
         id="path40"
         style="fill:#5ec232;fill-opacity:1;fill-rule:nonzero;stroke:none"
         d="m 1521.54,524.91 -75.42,49.789 c -14.11,9.313 -33.1,5.422 -42.41,-8.687 -9.32,-14.102 -5.43,-33.09 8.68,-42.403 l 75.42,-49.789 c 14.11,-9.32 33.1,-5.429 42.41,8.68 9.31,14.109 5.43,33.09 -8.68,42.41" /></g></g></svg>