<svg
   xmlns:dc="http://purl.org/dc/elements/1.1/"
   xmlns:cc="http://creativecommons.org/ns#"
   xmlns:rdf="http://www.w3.org/1999/02/22-rdf-syntax-ns#"
   xmlns:svg="http://www.w3.org/2000/svg"
   xmlns="http://www.w3.org/2000/svg"
   viewBox="0 0 33.173332 33.173332"
   height="33.173332"
   width="33.173332"
   xml:space="preserve"
   id="svg2"
   version="1.1"><metadata
     id="metadata8"><rdf:RDF><cc:Work
         rdf:about=""><dc:format>image/svg+xml</dc:format><dc:type
           rdf:resource="http://purl.org/dc/dcmitype/StillImage" /></cc:Work></rdf:RDF></metadata><defs
     id="defs6" /><g
     transform="matrix(1.3333333,0,0,-1.3333333,0,33.173333)"
     id="g10"><g
       transform="scale(0.1)"
       id="g12"><path
         id="path14"
         style="fill:#585b5d;fill-opacity:1;fill-rule:nonzero;stroke:none"
         d="M 248.75,0 H 0 V 248.75 H 248.75 V 0" /><path
         id="path16"
         style="fill:#ffffff;fill-opacity:1;fill-rule:nonzero;stroke:none"
         d="m 118.082,185.156 c 16.828,0 20.145,0 20.145,0 0,0 4.503,0.946 5.214,-6.398 0.711,-7.348 0,-45.738 0,-45.738 0,0 -0.711,-6.637 3.082,-6.637 3.79,0 14.219,12.558 22.278,24.644 8.054,12.09 14.453,24.411 15.875,27.02 1.422,2.605 2.609,5.211 5.926,5.211 3.32,0 25.359,0 25.359,0 0,0 6.637,-0.473 6.637,-5.449 0,-4.977 -5.692,-14.692 -12.801,-26.305 -7.109,-11.613 -18.957,-27.254 -18.957,-29.863 0,-2.606 3.793,-7.582 12.32,-16.352 8.535,-8.7656 18.488,-21.3281 21.332,-25.5937 2.844,-4.2656 2.684,-12.1289 1.656,-13.9805 -1.39,-2.5195 -6.722,-2.0937 -17.625,-2.0937 -10.902,0 -14.812,-1.1953 -21.476,5.4102 -7.5,7.4335 -22.039,22.75 -28.203,26.5429 -6.16,3.7891 -11.848,5.4488 -14.219,1.8946 -2.367,-3.5547 -1.422,-5.9219 -1.422,-5.9219 V 71.4023 c 0,0 -0.711,-7.7812 -8.055,-7.7812 -7.347,0 -15.168,0 -15.168,0 0,0 -20.6206,1.6172 -46.2144,25.0781 -25.5937,23.4648 -39.3398,50.7188 -45.7383,68.0198 -6.3984,17.297 -9.7148,28.476 0,28.476 9.7149,0 18.4844,0.039 24.6485,0 6.1601,-0.039 8.0547,-2.648 10.4258,-8.808 2.3711,-6.16 12.7968,-29.86 18.9609,-39.102 6.1602,-9.246 14.9297,-19.672 18.2465,-19.672 3.32,0 3.082,0.711 3.32,5.215 0.234,4.5 0.234,37.918 0.234,41 0,3.078 -3.316,9.477 -6.1599,12.559 -2.8437,3.082 -3.082,8.883 0.711,8.828 3.7889,-0.059 19.6679,-0.059 19.6679,-0.059" /></g></g></svg>